<?xml version="1.0" encoding="utf-8"?>
<!-- Generator: Adobe Illustrator 16.0.0, SVG Export Plug-In . SVG Version: 6.00 Build 0)  -->
<!DOCTYPE svg PUBLIC "-//W3C//DTD SVG 1.1//EN" "http://www.w3.org/Graphics/SVG/1.1/DTD/svg11.dtd">
<svg version="1.1" id="Layer_1" xmlns="http://www.w3.org/2000/svg" xmlns:xlink="http://www.w3.org/1999/xlink" x="0px" y="0px"
	 width="16px" height="16px" viewBox="0 0 16 16" enable-background="new 0 0 16 16" xml:space="preserve">
<g>
	<g id="XMLID_1_">
		<g>
			<path fill="#F7BE17" d="M8.372,7.825c0.097-0.246,0.189-0.48,0.29-0.737c0.396,0.455,0.782,0.896,1.19,1.367
				C9.34,8.237,8.861,8.032,8.372,7.825z"/>
			<path d="M8.264,4.825C8.173,4.397,8.435,3.944,8.879,3.892c0.249-0.029,0.568,0.144,0.68,0.411
				c0.044,0.112,0.063,0.235,0.096,0.353c0,0.354-0.309,0.794-0.77,0.755C8.6,5.387,8.331,5.147,8.264,4.825z"/>
			<path d="M8.662,7.088c-0.101,0.256-0.193,0.491-0.29,0.737c0.49,0.208,0.968,0.413,1.48,0.63
				C9.443,7.984,9.058,7.543,8.662,7.088z M7.062,5.362c-0.455-0.124-0.879-0.267-0.74-0.866C6.592,4.63,6.856,4.761,7.12,4.892
				c0.007-0.013,0.015-0.026,0.021-0.041C7.017,4.778,6.88,4.719,6.772,4.626c-0.148-0.127-0.3-0.265-0.405-0.427
				C6.19,3.926,6.28,3.558,6.552,3.325c0.166,0.508,0.593,0.786,0.974,1.094c0.297,0.24,0.41,0.519,0.314,0.882
				C7.794,5.485,7.827,5.658,7.898,5.867C7.98,5.625,8.111,5.468,8.335,5.408c0.359-0.096,0.715,0.169,0.711,0.54
				c-0.002,0.106,0.03,0.18,0.1,0.258c0.459,0.521,0.916,1.044,1.368,1.571c0.077,0.088,0.162,0.184,0.202,0.292
				c0.121,0.332-0.157,0.663-0.511,0.618c-0.014-0.001-0.025,0.002-0.056,0.006c0.183,0.262,0.096,0.505-0.016,0.755
				c-0.297,0.666-0.583,1.336-0.875,2.002c-0.138,0.318-0.468,0.461-0.762,0.332c-0.305-0.133-0.426-0.479-0.284-0.805
				c0.214-0.489,0.426-0.979,0.64-1.468c0.011-0.029,0.019-0.058,0.035-0.098C8.622,9.298,8.363,9.189,8.105,9.077
				c-0.254-0.112-0.511-0.221-0.76-0.343C7.066,8.6,6.949,8.316,7.058,8.024c0.18-0.477,0.369-0.952,0.553-1.427
				c0.007-0.015,0.011-0.033,0.021-0.059C7.572,6.52,7.517,6.501,7.446,6.478c0.037-0.044,0.065-0.08,0.104-0.126
				c-0.16,0.027-0.301,0.03-0.408-0.115c0.043-0.026,0.083-0.049,0.107-0.062c-0.114-0.052-0.232-0.104-0.38-0.169
				C7.007,5.917,7.109,5.853,7.21,5.789c-0.186,0.017-0.37,0.07-0.539-0.024C6.493,5.666,6.475,5.478,6.442,5.291
				c0.11,0.021,0.21,0.043,0.312,0.057C6.854,5.361,6.955,5.366,7.062,5.362z"/>
			<path d="M5.923,11.595c0.001-0.436-0.082-0.849-0.378-1.193c-0.153-0.177-0.203-0.392-0.204-0.628c1.089,0,2.166,0,3.244,0
				c-0.021,0.499-0.413,0.863-0.869,0.853c-0.292-0.008-0.266-0.031-0.265,0.276c0,0.267,0,0.537,0,0.813
				c-0.059,0.006-0.102,0.012-0.146,0.012c-0.416,0.002-0.832,0-1.248,0.002C5.958,11.731,5.922,11.708,5.923,11.595z"/>
			<path d="M5.492,9.688c-0.12,0.002-0.16-0.029-0.159-0.152c0.006-0.622,0.003-1.241,0.003-1.862c0-0.17,0.003-0.173,0.169-0.173
				c0.297,0,0.594,0.003,0.89-0.001C6.487,7.497,6.53,7.526,6.521,7.62C6.507,7.734,6.572,7.871,6.419,7.946
				C6.402,7.954,6.4,8.001,6.4,8.031c-0.001,0.425-0.001,0.85-0.001,1.273c0,0.014,0.006,0.025,0.015,0.054c0.04,0,0.083,0,0.126,0
				c0.678,0,1.355,0,2.034,0c0.145,0,0.217,0.051,0.223,0.154C8.8,9.616,8.713,9.686,8.575,9.686
				C7.548,9.686,6.52,9.684,5.492,9.688z"/>
			<path fill="#F7BE17" d="M0.103,8.128c2.612-2.671,5.217-5.335,7.833-8.01c2.643,2.584,5.281,5.163,7.925,7.75
				c-2.612,2.671-5.219,5.335-7.833,8.011C5.385,13.296,2.749,10.716,0.103,8.128z M5.923,11.595c0,0.113,0.035,0.137,0.134,0.135
				c0.416-0.002,0.832,0,1.248-0.002c0.044,0,0.087-0.006,0.146-0.012c0-0.276,0-0.547,0-0.813
				c-0.001-0.308-0.027-0.284,0.265-0.276c0.457,0.011,0.848-0.354,0.869-0.853c-1.078,0-2.155,0-3.244,0
				c0.001,0.236,0.051,0.451,0.204,0.628C5.841,10.746,5.924,11.159,5.923,11.595z M6.4,8.031c0-0.03,0.002-0.078,0.02-0.085
				C6.572,7.871,6.507,7.734,6.521,7.62c0.01-0.094-0.034-0.123-0.125-0.122C6.099,7.503,5.802,7.5,5.505,7.5
				c-0.166,0-0.169,0.003-0.169,0.173c0,0.621,0.003,1.24-0.003,1.862C5.332,9.658,5.372,9.689,5.492,9.688
				C6.52,9.684,7.548,9.686,8.575,9.686c0.138,0,0.225-0.069,0.221-0.173C8.79,9.409,8.718,9.358,8.573,9.358
				c-0.679,0-1.356,0-2.034,0c-0.042,0-0.086,0-0.126,0C6.405,9.33,6.399,9.318,6.399,9.305C6.398,8.881,6.398,8.456,6.4,8.031z
				 M8.264,4.825C8.331,5.147,8.6,5.387,8.885,5.411c0.461,0.039,0.77-0.402,0.77-0.755C9.622,4.538,9.603,4.415,9.559,4.303
				c-0.111-0.267-0.431-0.44-0.68-0.411C8.435,3.944,8.173,4.397,8.264,4.825z M6.323,4.497c-0.139,0.599,0.285,0.742,0.74,0.866
				C6.955,5.366,6.854,5.361,6.754,5.348C6.653,5.334,6.552,5.312,6.442,5.291c0.033,0.187,0.05,0.375,0.229,0.474
				C6.841,5.859,7.025,5.806,7.21,5.789C7.109,5.853,7.007,5.917,6.869,6.005c0.148,0.065,0.267,0.118,0.38,0.169
				C7.226,6.188,7.186,6.211,7.142,6.237C7.249,6.382,7.391,6.379,7.55,6.352C7.512,6.398,7.483,6.434,7.446,6.478
				c0.07,0.023,0.126,0.042,0.185,0.061C7.621,6.565,7.617,6.583,7.61,6.598c-0.184,0.475-0.373,0.95-0.553,1.427
				C6.949,8.316,7.066,8.6,7.345,8.734c0.25,0.122,0.506,0.231,0.76,0.343c0.258,0.112,0.517,0.221,0.782,0.334
				c-0.016,0.04-0.023,0.068-0.035,0.098c-0.214,0.489-0.426,0.979-0.64,1.468c-0.142,0.326-0.021,0.672,0.284,0.805
				c0.294,0.129,0.625-0.014,0.762-0.332c0.292-0.666,0.578-1.336,0.875-2.002c0.111-0.25,0.198-0.493,0.016-0.755
				c0.03-0.004,0.042-0.007,0.056-0.006c0.354,0.044,0.632-0.286,0.511-0.618c-0.04-0.107-0.125-0.203-0.202-0.292
				c-0.452-0.526-0.909-1.05-1.368-1.571c-0.069-0.079-0.102-0.152-0.1-0.258c0.004-0.371-0.352-0.636-0.711-0.54
				C8.111,5.468,7.98,5.625,7.898,5.867C7.827,5.658,7.794,5.485,7.841,5.301c0.095-0.363-0.017-0.642-0.314-0.882
				C7.145,4.111,6.718,3.833,6.552,3.325C6.28,3.558,6.19,3.926,6.367,4.199c0.105,0.162,0.257,0.299,0.405,0.427
				C6.88,4.719,7.017,4.778,7.141,4.852C7.135,4.866,7.127,4.879,7.12,4.892C6.856,4.761,6.592,4.63,6.323,4.497z"/>
			<path d="M7.936,0.118c-2.617,2.674-5.222,5.338-7.833,8.01c2.646,2.588,5.283,5.168,7.925,7.751
				c2.615-2.676,5.221-5.34,7.833-8.011C13.217,5.281,10.579,2.702,7.936,0.118z M-0.012,8.124C2.633,5.419,5.279,2.713,7.933,0
				c0.346,0.337,0.689,0.67,1.03,1.003c1.437,1.406,2.874,2.813,4.313,4.219c0.863,0.845,1.729,1.69,2.595,2.535
				c0.032,0.033,0.073,0.061,0.109,0.09c0,0.01,0,0.018,0,0.027c-0.455,0.465-0.914,0.927-1.368,1.392
				c-1.085,1.107-2.169,2.217-3.252,3.324c-1.065,1.091-2.13,2.181-3.196,3.269c-0.02,0.023-0.036,0.051-0.055,0.073
				c-0.054,0-0.106,0-0.16,0c-0.316-0.314-0.631-0.63-0.951-0.942c-1.079-1.058-2.159-2.113-3.24-3.169
				c-1.244-1.217-2.489-2.434-3.734-3.65C0.015,8.163,0.008,8.151-0.012,8.124z"/>
		</g>
		<g>
		</g>
	</g>
</g>
</svg>
