<?xml version="1.0" encoding="utf-8"?>
<!-- Generator: Adobe Illustrator 16.0.0, SVG Export Plug-In . SVG Version: 6.00 Build 0)  -->
<!DOCTYPE svg PUBLIC "-//W3C//DTD SVG 1.1//EN" "http://www.w3.org/Graphics/SVG/1.1/DTD/svg11.dtd">
<svg version="1.1" id="Layer_1" xmlns="http://www.w3.org/2000/svg" xmlns:xlink="http://www.w3.org/1999/xlink" x="0px" y="0px"
	 width="451.05px" height="452.333px" viewBox="81.7 123.167 451.05 452.333" enable-background="new 81.7 123.167 451.05 452.333"
	 xml:space="preserve">
<g>
	<g id="XMLID_1_">
		<g>
			<path stroke="#000000" stroke-width="2" stroke-miterlimit="10" d="M532.75,347.5c0,0.25,0,0.5,0,0.75
				c-12.87,13.08-25.77,26.13-38.61,39.24c-30.59,31.24-61.148,62.51-91.72,93.77c-30.04,30.73-60.08,61.471-90.11,92.21
				c-0.59,0.61-1.04,1.352-1.56,2.03c-1.5,0-3,0-4.5,0c-8.94-8.87-17.84-17.78-26.84-26.59c-30.43-29.812-60.89-59.59-91.36-89.37
				c-35.1-34.31-70.21-68.61-105.32-102.93c-0.26-0.25-0.45-0.57-1.03-1.33c74.61-76.29,149.24-152.6,224.09-229.13
				c9.77,9.52,19.42,18.89,29.03,28.29c40.55,39.66,81.08,79.34,121.63,119c24.38,23.85,48.78,47.68,73.188,71.5
				C530.6,345.88,531.71,346.65,532.75,347.5z M308.43,573.98C382.21,498.54,455.7,423.39,529.39,348.04
				c-74.608-72.95-149-145.68-223.54-218.56c-73.78,75.43-147.26,150.56-220.92,225.89C159.56,428.38,233.92,501.11,308.43,573.98z"
				/>
			<path stroke="#000000" stroke-width="2" stroke-miterlimit="10" d="M384.23,353.7c3.46,9.38-4.432,18.69-14.392,17.44
				c-0.34-0.04-0.688,0.06-1.57,0.14c5.172,7.39,2.712,14.25-0.438,21.33c-8.36,18.75-16.42,37.63-24.65,56.44
				c-3.92,8.97-13.198,12.96-21.52,9.36c-8.62-3.74-12.021-13.48-8-22.67c6.04-13.8,12.02-27.62,18.02-41.44
				c0.33-0.77,0.57-1.59,0.98-2.74c-7.45-3.18-14.771-6.25-22.03-9.42c-7.18-3.14-14.4-6.22-21.46-9.63
				c-7.84-3.8-11.13-11.82-8.07-20.04c5.03-13.47,10.38-26.83,15.59-40.24c0.18-0.45,0.31-0.93,0.55-1.66
				c-1.64-0.55-3.21-1.06-5.19-1.72c1.03-1.25,1.84-2.24,2.91-3.55c-4.46,0.75-8.5,0.86-11.48-3.25c1.23-0.73,2.35-1.39,3-1.77
				c-3.21-1.43-6.56-2.92-10.74-4.78c3.93-2.48,6.8-4.29,9.66-6.09c-5.24,0.47-10.42,1.99-15.2-0.67
				c-5.04-2.79-5.55-8.12-6.46-13.36c3.09,0.57,5.93,1.21,8.79,1.59c2.82,0.38,5.66,0.51,8.7,0.42
				c-12.83-3.48-24.79-7.52-20.88-24.42c7.61,3.77,15.06,7.46,22.51,11.15c0.2-0.37,0.4-0.75,0.6-1.13
				c-3.51-2.09-7.38-3.75-10.43-6.37c-4.19-3.6-8.46-7.47-11.42-12.05c-4.98-7.69-2.43-18.08,5.23-24.64
				c4.67,14.31,16.69,22.15,27.46,30.85c8.39,6.78,11.55,14.63,8.89,24.88c-1.35,5.2-0.42,10.06,1.61,15.96
				c2.32-6.84,6-11.26,12.32-12.95c10.13-2.72,20.14,4.77,20.04,15.22c-0.03,3.01,0.88,5.08,2.81,7.28
				c12.95,14.69,25.801,29.47,38.591,44.31C380.73,348,383.11,350.67,384.23,353.7z M359.92,364.61
				c-11.58-13.3-22.42-25.73-33.62-38.58c-2.83,7.23-5.42,13.86-8.14,20.79C331.97,352.7,345.45,358.45,359.92,364.61z"/>
			<path stroke="#000000" stroke-width="2" stroke-miterlimit="10" d="M351.58,247.5c1.29,3.15,1.84,6.62,2.729,9.94
				c0,9.97-8.698,22.39-21.698,21.3c-8-0.67-15.592-7.43-17.512-16.51c-2.56-12.09,4.852-24.84,17.352-26.31
				C339.5,235.09,348.49,239.97,351.58,247.5z"/>
			<path fill="#F7BE17" stroke="#000000" stroke-width="2" stroke-miterlimit="10" d="M326.3,326.03
				c11.2,12.85,22.04,25.28,33.62,38.58c-14.47-6.16-27.95-11.91-41.76-17.79C320.88,339.89,323.47,333.26,326.3,326.03z"/>
			<path fill="#F7BE17" stroke="#000000" stroke-width="2" stroke-miterlimit="10" d="M529.39,348.04
				c-73.688,75.35-147.18,150.5-220.96,225.94c-74.51-72.87-148.87-145.602-223.5-218.61c73.66-75.33,147.14-150.46,220.92-225.89
				C380.39,202.36,454.78,275.09,529.39,348.04z M369.84,371.14c9.96,1.25,17.852-8.06,14.392-17.44c-1.12-3.03-3.5-5.7-5.672-8.22
				c-12.79-14.84-25.64-29.62-38.59-44.31c-1.93-2.2-2.84-4.27-2.81-7.28c0.1-10.45-9.91-17.94-20.04-15.22
				c-6.32,1.69-10,6.11-12.32,12.95c-2.03-5.9-2.96-10.76-1.61-15.96c2.66-10.25-0.5-18.1-8.89-24.88
				c-10.77-8.7-22.79-16.54-27.46-30.85c-7.66,6.56-10.21,16.95-5.23,24.64c2.96,4.58,7.23,8.45,11.42,12.05
				c3.05,2.62,6.92,4.28,10.43,6.37c-0.2,0.38-0.4,0.76-0.6,1.13c-7.45-3.69-14.9-7.38-22.51-11.15
				c-3.91,16.9,8.05,20.94,20.88,24.42c-3.04,0.09-5.88-0.04-8.7-0.42c-2.86-0.38-5.7-1.02-8.79-1.59
				c0.91,5.24,1.42,10.57,6.46,13.36c4.78,2.66,9.96,1.14,15.2,0.67c-2.86,1.8-5.73,3.61-9.66,6.09c4.18,1.86,7.53,3.35,10.74,4.78
				c-0.65,0.38-1.77,1.04-3,1.77c2.98,4.11,7.02,4,11.48,3.25c-1.07,1.31-1.88,2.3-2.91,3.55c1.98,0.66,3.55,1.17,5.19,1.72
				c-0.24,0.73-0.37,1.21-0.55,1.66c-5.21,13.41-10.56,26.77-15.59,40.24c-3.06,8.22,0.23,16.24,8.07,20.04
				c7.06,3.41,14.28,6.49,21.46,9.63c7.26,3.17,14.58,6.24,22.03,9.42c-0.41,1.15-0.65,1.97-0.98,2.74
				c-6,13.82-11.979,27.642-18.02,41.44c-4.021,9.188-0.62,18.93,8,22.67c8.32,3.6,17.6-0.391,21.52-9.36
				c8.23-18.81,16.29-37.688,24.65-56.44c3.149-7.08,5.609-13.94,0.438-21.33C369.15,371.2,369.5,371.1,369.84,371.14z
				 M354.31,257.44c-0.89-3.32-1.438-6.79-2.729-9.94c-3.09-7.53-12.08-12.41-19.13-11.58c-12.5,1.47-19.91,14.22-17.352,26.31
				c1.92,9.08,9.512,15.84,17.512,16.51C345.61,279.83,354.31,267.41,354.31,257.44z M323.89,399.29c3.9,0,6.33-1.91,6.2-4.88
				c-0.13-2.9-2.17-4.31-6.27-4.31c-19.12,0-38.23,0.01-57.35,0.01c-1.21,0-2.42,0-3.56,0c-0.22-0.81-0.4-1.16-0.4-1.51
				c-0.01-11.98-0.01-23.97,0.02-35.95c0.01-0.83,0.09-2.18,0.56-2.42c4.3-2.1,2.47-5.96,2.84-9.18c0.3-2.67-0.95-3.45-3.5-3.42
				c-8.37,0.12-16.75,0.06-25.12,0.05c-4.68,0-4.77,0.06-4.77,4.88c0,17.5,0.09,34.99-0.08,52.49c-0.03,3.51,1.08,4.33,4.46,4.32
				C265.91,399.24,294.9,399.29,323.89,399.29z M324.16,401.76c-30.4,0-60.78,0-91.49,0c0.05,6.67,1.45,12.73,5.76,17.75
				c8.35,9.74,10.69,21.37,10.65,33.66c-0.01,3.19,0.99,3.812,3.78,3.79c11.74-0.09,23.47-0.02,35.21-0.04
				c1.22,0,2.44-0.188,4.08-0.33c0-7.84,0.01-15.42,0-23c-0.01-8.64-0.75-7.97,7.48-7.76C312.51,426.15,323.57,415.85,324.16,401.76
				z"/>
			<path stroke="#000000" stroke-width="2" stroke-miterlimit="10" d="M330.09,394.41c0.13,2.97-2.3,4.88-6.2,4.88
				c-28.99,0-57.979-0.05-86.97,0.08c-3.38,0.01-4.49-0.812-4.46-4.32c0.17-17.5,0.08-34.99,0.08-52.49c0-4.82,0.09-4.88,4.77-4.88
				c8.37,0.01,16.75,0.07,25.12-0.05c2.55-0.03,3.8,0.75,3.5,3.42c-0.37,3.22,1.46,7.08-2.84,9.18c-0.47,0.24-0.55,1.59-0.56,2.42
				c-0.03,11.98-0.03,23.97-0.02,35.95c0,0.35,0.18,0.7,0.4,1.51c1.14,0,2.35,0,3.56,0c19.12,0,38.23-0.01,57.35-0.01
				C327.92,390.1,329.96,391.51,330.09,394.41z"/>
			<path stroke="#000000" stroke-width="2" stroke-miterlimit="10" d="M232.67,401.76c30.71,0,61.09,0,91.49,0
				c-0.59,14.09-11.65,24.392-24.53,24.07c-8.23-0.21-7.49-0.88-7.48,7.76c0.01,7.58,0,15.16,0,23c-1.64,0.142-2.86,0.33-4.08,0.33
				c-11.74,0.021-23.47-0.05-35.21,0.04c-2.79,0.021-3.79-0.6-3.78-3.79c0.04-12.29-2.3-23.92-10.65-33.66
				C234.12,414.49,232.72,408.43,232.67,401.76z"/>
		</g>
	</g>
</g>
</svg>
