<?xml version="1.0" encoding="utf-8"?>
<!-- Generator: Adobe Illustrator 16.0.0, SVG Export Plug-In . SVG Version: 6.00 Build 0)  -->
<!DOCTYPE svg PUBLIC "-//W3C//DTD SVG 1.1//EN" "http://www.w3.org/Graphics/SVG/1.1/DTD/svg11.dtd">
<svg version="1.1" id="Layer_1" xmlns="http://www.w3.org/2000/svg" xmlns:xlink="http://www.w3.org/1999/xlink" x="0px" y="0px"
	 width="612px" height="792px" viewBox="0 0 612 792" enable-background="new 0 0 612 792" xml:space="preserve">
<g>
	<path fill-rule="evenodd" clip-rule="evenodd" fill="#100908" d="M493,299c-2.188,6.053-2.292,12.503-3.471,18.747
		c-3.967,21.02-13.812,39.626-23.145,58.499c-16.923,34.224-39.081,65.227-59.525,97.281
		c-26.817,42.048-51.28,85.307-69.201,132.018c-10.838,28.251-18.676,57.336-24.634,86.961c-0.097,0.48-0.021,0.995-0.024,1.494
		c-3.666,0-7.333,0-11,0c-4.247-22.67-10.189-44.897-17.435-66.784c-17.212-51.993-42.458-100.033-71.891-146.005
		c-23.728-37.061-48.462-73.492-69.043-112.496c-11.181-21.188-19.333-43.253-21.634-67.249c-0.067-0.699-0.212-1.284-0.997-1.466
		c0-11.667,0-23.333,0-35c1.36-0.384,0.904-1.556,1.054-2.456c1.176-7.034,2.025-14.14,3.567-21.093
		c7.037-31.734,22.346-59.152,44.388-82.808c27.846-29.886,62.038-48.292,102.229-55.713c5.581-1.03,11.425-0.569,16.763-2.931
		c10.667,0,21.334,0,32,0c2.578,2.085,5.643,0.762,8.461,1.164c32.877,4.683,63.426,15.405,90.074,35.609
		c36.28,27.506,59.856,63.322,69.623,108.052c1.535,7.032,1.449,14.325,3.842,21.175C493,277,493,288,493,299z M307.496,658.252
		c3.947-15.406,8.288-29.679,13.209-43.775c18.461-52.885,45.585-101.352,75.6-148.349c20.388-31.923,41.983-63.065,59.388-96.872
		c14.409-27.989,25.086-56.564,24.46-88.707c-0.852-43.729-15.842-81.799-45.785-113.278
		c-41.024-43.129-92.422-59.427-150.837-52.832c-42.935,4.848-79.289,23.944-107.496,57.034
		c-41.939,49.196-52.93,104.875-32.229,166.135c8.66,25.627,23.767,48.231,37.717,71.204c18.12,29.838,38.14,58.486,56.166,88.401
		c23.983,39.802,44.211,81.356,58.933,125.486C300.438,634.143,303.697,645.773,307.496,658.252z"/>
	<path fill-rule="evenodd" clip-rule="evenodd" fill="#F9D117" d="M307.496,658.252c-3.799-12.479-7.058-24.109-10.875-35.554
		c-14.722-44.13-34.949-85.685-58.933-125.486c-18.026-29.915-38.046-58.563-56.166-88.401
		c-13.951-22.973-29.057-45.576-37.717-71.204c-20.701-61.259-9.71-116.938,32.229-166.135
		c28.208-33.089,64.561-52.186,107.496-57.034c58.416-6.595,109.813,9.703,150.837,52.832
		c29.943,31.479,44.934,69.55,45.785,113.278c0.626,32.143-10.051,60.718-24.46,88.707c-17.404,33.807-39,64.949-59.388,96.872
		c-30.015,46.997-57.139,95.464-75.6,148.349C315.784,628.573,311.443,642.846,307.496,658.252z M307.906,361
		c34.456-0.014,62.928-28.367,63.039-62.775c0.109-34.526-28.572-63.219-63.177-63.197c-34.738,0.022-62.787,28.323-62.774,63.339
		C245.006,332.908,273.238,361.015,307.906,361z"/>
	<path fill-rule="evenodd" clip-rule="evenodd" fill="#FFFFFF" d="M305.872,463c-70.035,0.038-127.066-71.584-127.09-159.599
		c-0.024-89.228,56.637-161.344,126.812-161.4c69.905-0.056,127.845,73.059,127.622,161.037
		C432.992,390.717,375.478,462.965,305.872,463z"/>
	<g>
		<path fill="none" d="M110,496.074c0-132,0-263.999,0-396.074c131.941,0,263.907,0,396,0c0,131.974,0,264.024,0,396.074
			C374.063,496.074,242.045,496.074,110,496.074z M332.401,383.053c6.024-2.551,11.735-4.575,17.085-7.306
			c16.678-8.516,29.687-20.717,37.174-38.24c1.331-3.114,3.362-6.037,4.096-9.269c0.771-3.41,1.307-7.374,0.31-10.588
			c-2.69-8.664-10.003-12.896-17.847-16.217c-2.664-1.129-5.417-2.048-8.6-3.24c2.35-0.523,4.12-0.718,5.747-1.313
			c9.135-3.347,15.247-12.439,15.314-23.533c0.148-23.866,0.151-47.733-0.003-71.598c-0.066-10.426-6.144-17.789-15.935-19.653
			c-3.187-0.607-6.568-0.137-9.794-0.606c-1.646-0.239-3.456-1.147-4.65-2.31c-3.336-3.24-6.086-7.124-9.604-10.125
			c-13.111-11.188-28.465-15.436-45.589-14.614c-18.759,0.899-34.06,8.4-45.785,22.938c-2.456,3.046-4.772,4.909-8.759,4.245
			c-1.22-0.203-2.519,0.002-3.775,0.092c-12.157,0.856-19.429,8.425-19.479,20.658c-0.095,23.613-0.065,47.228-0.008,70.841
			c0.024,10.142,5.803,22.914,21.056,25.009c-1.204,0.472-2.003,0.734-2.757,1.092c-4.981,2.367-10.292,4.236-14.855,7.238
			c-9.909,6.515-11.81,14.463-6.872,25.291c0.312,0.681,0.46,1.437,0.671,2.164c4.771,16.44,14.913,28.879,29.423,37.448
			c8.262,4.879,17.343,8.367,26.584,12.73c-3.41,17.068-7.015,35.113-10.636,53.244c26.461,0,52.249,0,78.351,0
			C339.578,418.967,335.962,400.873,332.401,383.053z"/>
		<path fill-rule="evenodd" clip-rule="evenodd" d="M332.401,383.053c3.561,17.82,7.177,35.914,10.864,54.376
			c-26.102,0-51.89,0-78.351,0c3.621-18.131,7.226-36.176,10.636-53.244c-9.241-4.363-18.322-7.852-26.584-12.73
			c-14.511-8.568-24.652-21.008-29.423-37.448c-0.211-0.727-0.359-1.482-0.671-2.164c-4.938-10.828-3.038-18.775,6.872-25.291
			c4.563-3.002,9.874-4.871,14.855-7.238c0.753-0.357,1.553-0.62,2.757-1.092c-15.253-2.095-21.032-14.867-21.056-25.009
			c-0.057-23.613-0.086-47.228,0.008-70.841c0.05-12.233,7.321-19.802,19.479-20.658c1.257-0.089,2.555-0.295,3.775-0.092
			c3.987,0.664,6.303-1.199,8.759-4.245c11.726-14.537,27.026-22.038,45.785-22.938c17.124-0.822,32.478,3.426,45.589,14.614
			c3.518,3.001,6.268,6.885,9.604,10.125c1.194,1.162,3.005,2.071,4.65,2.31c3.226,0.469,6.607-0.001,9.794,0.606
			c9.791,1.865,15.868,9.228,15.935,19.653c0.154,23.865,0.151,47.732,0.003,71.598c-0.067,11.094-6.18,20.187-15.314,23.533
			c-1.627,0.595-3.397,0.79-5.747,1.313c3.183,1.191,5.936,2.111,8.6,3.24c7.844,3.321,15.156,7.554,17.847,16.217
			c0.997,3.214,0.461,7.178-0.31,10.588c-0.733,3.231-2.765,6.154-4.096,9.269c-7.487,17.523-20.496,29.725-37.174,38.24
			C344.137,378.478,338.426,380.502,332.401,383.053z M369.67,239.493c-0.197-20.984-6.738-41.612-22.197-59.107
			c-23.364-26.443-62.896-26.64-86.421-0.401c-12.549,13.996-19.52,30.358-21.705,48.911c-2.55,21.638,1.433,41.852,12.77,60.587
			c1.656,2.737,3.26,3.205,6.354,2.772c13.329-1.857,26.679-3.94,40.09-4.744c17.555-1.051,34.993,0.936,52.161,4.884
			c2.303,0.529,3.584-0.114,4.865-2.171C364.883,275.285,369.504,259.031,369.67,239.493z M300.998,347.895
			c20.058-0.038,36.96-1.638,53.48-6.207c8.651-2.393,17.113-5.348,24.241-11.062c7.33-5.873,7.463-12.436-0.019-18.086
			c-3.87-2.923-8.291-5.318-12.785-7.176c-13.987-5.781-28.748-8.245-43.772-9.362c-23.423-1.742-46.627-0.674-69.371,5.656
			c-8.27,2.302-16.361,5.213-23.184,10.689c-7.56,6.066-7.711,12.431,0.03,18.292c3.963,3.001,8.527,5.439,13.157,7.29
			C262.401,345.779,283.069,347.625,300.998,347.895z M274.592,429.297c19.812,0,39.326,0,58.946,0
			c-2.824-14.104-5.605-27.787-8.265-41.493c-0.442-2.283-1.324-3.224-3.742-2.955c-3.372,0.374-6.775,0.58-10.169,0.608
			c-9.168,0.079-18.338,0.028-28.005,0.028C280.532,399.605,277.557,414.475,274.592,429.297z M374.195,343.754
			c-47.587,16.429-94.815,16.574-142.115-0.97c4.753,8.342,11.236,15.051,19.449,19.727c30.823,17.542,62.609,18.956,94.859,4.335
			C357.649,361.742,367.25,354.16,374.195,343.754z M245.155,189.567c-9.685-0.565-14.696,4.036-14.737,12.985
			c-0.03,6.182-0.007,12.365-0.008,18.547c0,1.893,0,3.785,0,5.678c0,1.753,0,3.506,0,5.26
			C232.536,216.975,236.113,202.591,245.155,189.567z M363.132,189.766c8.793,12.49,12.226,26.716,14.222,41.481
			c0.298-9.973,0.357-19.906,0.28-29.837C377.57,193.258,371.74,188.523,363.132,189.766z M230.517,250.393
			c0,8.668-0.33,17.355,0.115,26c0.3,5.8,5.309,10.308,10.906,10.82C235.669,275.526,232.146,263.271,230.517,250.393z
			 M377.573,253.493c-2.964,10.065-6.432,21.842-9.825,33.361c5.259-1.159,9.565-5.354,9.752-10.791
			C377.781,267.896,377.573,259.71,377.573,253.493z"/>
		<path fill-rule="evenodd" clip-rule="evenodd" fill="#FFFFFF" d="M369.67,239.493c-0.166,19.538-4.787,35.792-14.083,50.732
			c-1.281,2.057-2.562,2.7-4.865,2.171c-17.168-3.948-34.606-5.935-52.161-4.884c-13.411,0.804-26.761,2.887-40.09,4.744
			c-3.095,0.432-4.698-0.035-6.354-2.772c-11.337-18.736-15.319-38.95-12.77-60.587c2.186-18.552,9.156-34.915,21.705-48.911
			c23.524-26.239,63.057-26.042,86.421,0.401C362.932,197.881,369.473,218.508,369.67,239.493z"/>
		<path fill-rule="evenodd" clip-rule="evenodd" fill="#FFFFFF" d="M300.998,347.895c-17.929-0.27-38.597-2.116-58.223-9.965
			c-4.63-1.851-9.193-4.289-13.157-7.29c-7.741-5.861-7.589-12.226-0.03-18.292c6.823-5.476,14.914-8.387,23.184-10.689
			c22.744-6.33,45.948-7.397,69.371-5.656c15.024,1.118,29.785,3.581,43.772,9.362c4.494,1.858,8.915,4.253,12.785,7.176
			c7.481,5.65,7.349,12.213,0.019,18.086c-7.128,5.713-15.59,8.668-24.241,11.062C337.958,346.257,321.056,347.857,300.998,347.895z
			 M309.301,334.505c6.056-0.565,17.785-1.213,29.358-2.923c6.116-0.903,12.289-2.992,17.845-5.744
			c6.952-3.443,6.839-10.138,0.133-14.07c-3.104-1.821-6.613-3.247-10.123-4.038c-26.695-6.008-53.55-6.075-80.349-0.958
			c-5.664,1.082-11.36,3.435-16.302,6.424c-4.905,2.967-4.633,8.223,0.119,11.54c3.032,2.117,6.617,3.696,10.18,4.745
			C274.34,333.652,288.981,334.099,309.301,334.505z"/>
		<path fill-rule="evenodd" clip-rule="evenodd" fill="#FFFFFF" d="M274.592,429.297c2.965-14.822,5.94-29.691,8.766-43.811
			c9.667,0,18.837,0.051,28.005-0.028c3.394-0.028,6.797-0.234,10.169-0.608c2.418-0.269,3.3,0.672,3.742,2.955
			c2.659,13.706,5.44,27.389,8.265,41.493C313.918,429.297,294.403,429.297,274.592,429.297z"/>
		<path fill-rule="evenodd" clip-rule="evenodd" fill="#FFFFFF" d="M374.195,343.754c-6.945,10.405-16.546,17.987-27.807,23.092
			c-32.25,14.621-64.036,13.207-94.859-4.335c-8.213-4.676-14.696-11.384-19.449-19.727
			C279.38,360.329,326.608,360.183,374.195,343.754z"/>
		<path fill-rule="evenodd" clip-rule="evenodd" fill="#FFFFFF" d="M245.155,189.567c-9.042,13.023-12.619,27.407-14.745,42.47
			c0-1.754,0-3.507,0-5.26c0-1.893,0-3.785,0-5.678c0.001-6.182-0.022-12.365,0.008-18.547
			C230.458,193.604,235.47,189.002,245.155,189.567z"/>
		<path fill-rule="evenodd" clip-rule="evenodd" fill="#FFFFFF" d="M363.132,189.766c8.608-1.243,14.438,3.492,14.502,11.644
			c0.077,9.932,0.018,19.864-0.28,29.837C375.357,216.482,371.925,202.256,363.132,189.766z"/>
		<path fill-rule="evenodd" clip-rule="evenodd" fill="#FFFFFF" d="M230.517,250.393c1.63,12.878,5.152,25.133,11.021,36.82
			c-5.597-0.512-10.606-5.02-10.906-10.82C230.187,267.748,230.517,259.061,230.517,250.393z"/>
		<path fill-rule="evenodd" clip-rule="evenodd" fill="#FFFFFF" d="M377.573,253.493c0,6.217,0.208,14.403-0.073,22.57
			c-0.187,5.437-4.493,9.632-9.752,10.791C371.142,275.335,374.609,263.558,377.573,253.493z"/>
		<path fill-rule="evenodd" clip-rule="evenodd" d="M309.301,334.505c-20.319-0.406-34.961-0.853-49.139-5.025
			c-3.562-1.048-7.147-2.627-10.18-4.745c-4.752-3.317-5.024-8.573-0.119-11.54c4.941-2.989,10.638-5.343,16.302-6.424
			c26.799-5.117,53.653-5.049,80.349,0.958c3.51,0.791,7.019,2.217,10.123,4.038c6.706,3.933,6.819,10.627-0.133,14.07
			c-5.556,2.751-11.729,4.84-17.845,5.744C327.086,333.292,315.356,333.939,309.301,334.505z M353.101,318.407
			c-2.279-0.893-4.278-1.953-6.409-2.475c-25.759-6.298-51.7-6.062-77.688-1.766c-4.679,0.773-9.203,2.476-14.591,3.97
			C270.023,329.241,340.258,328.869,353.101,318.407z"/>
		<path fill-rule="evenodd" clip-rule="evenodd" fill="#FFFFFF" d="M353.101,318.407c-12.843,10.461-83.077,10.834-98.688-0.271
			c5.388-1.494,9.912-3.197,14.591-3.97c25.987-4.296,51.929-4.532,77.688,1.766C348.822,316.454,350.821,317.514,353.101,318.407z"
			/>
	</g>
</g>
</svg>
