<?xml version="1.0" encoding="utf-8"?>
<!-- Generator: Adobe Illustrator 16.0.0, SVG Export Plug-In . SVG Version: 6.00 Build 0)  -->
<!DOCTYPE svg PUBLIC "-//W3C//DTD SVG 1.1//EN" "http://www.w3.org/Graphics/SVG/1.1/DTD/svg11.dtd">
<svg version="1.1" id="Layer_1" xmlns="http://www.w3.org/2000/svg" xmlns:xlink="http://www.w3.org/1999/xlink" x="0px" y="0px"
	 width="612px" height="792px" viewBox="0 0 612 792" enable-background="new 0 0 612 792" xml:space="preserve">
<g>
	<path fill-rule="evenodd" clip-rule="evenodd" fill="#100908" d="M493,299c-2.188,6.053-2.292,12.503-3.471,18.747
		c-3.967,21.02-13.812,39.626-23.145,58.499c-16.923,34.224-39.081,65.227-59.525,97.281
		c-26.817,42.048-51.28,85.307-69.201,132.018c-10.838,28.251-18.676,57.336-24.634,86.961c-0.097,0.48-0.021,0.995-0.024,1.494
		c-3.666,0-7.333,0-11,0c-4.247-22.67-10.189-44.897-17.435-66.784c-17.212-51.993-42.458-100.033-71.891-146.005
		c-23.728-37.061-48.462-73.492-69.043-112.496c-11.181-21.188-19.333-43.253-21.634-67.249c-0.067-0.699-0.212-1.284-0.997-1.466
		c0-11.667,0-23.333,0-35c1.36-0.384,0.904-1.556,1.054-2.456c1.176-7.034,2.025-14.14,3.567-21.093
		c7.037-31.734,22.346-59.152,44.388-82.808c27.846-29.886,62.038-48.292,102.229-55.713c5.581-1.03,11.425-0.569,16.763-2.931
		c10.667,0,21.334,0,32,0c2.578,2.085,5.643,0.762,8.461,1.164c32.877,4.683,63.426,15.405,90.074,35.609
		c36.28,27.506,59.856,63.322,69.623,108.052c1.535,7.032,1.449,14.325,3.842,21.175C493,277,493,288,493,299z M307.496,658.252
		c3.947-15.406,8.288-29.679,13.209-43.775c18.461-52.885,45.585-101.352,75.6-148.349c20.388-31.923,41.983-63.065,59.388-96.872
		c14.409-27.989,25.086-56.564,24.46-88.707c-0.852-43.729-15.842-81.799-45.785-113.278
		c-41.024-43.129-92.422-59.427-150.837-52.832c-42.935,4.848-79.289,23.944-107.496,57.034
		c-41.939,49.196-52.93,104.875-32.229,166.135c8.66,25.627,23.767,48.231,37.717,71.204c18.12,29.838,38.14,58.486,56.166,88.401
		c23.983,39.802,44.211,81.356,58.933,125.486C300.438,634.143,303.697,645.773,307.496,658.252z"/>
	<path fill-rule="evenodd" clip-rule="evenodd" fill="#F9D117" d="M307.496,658.252c-3.799-12.479-7.058-24.109-10.875-35.554
		c-14.722-44.13-34.949-85.685-58.933-125.486c-18.026-29.915-38.046-58.563-56.166-88.401
		c-13.951-22.973-29.057-45.576-37.717-71.204c-20.701-61.259-9.71-116.938,32.229-166.135
		c28.208-33.089,64.561-52.186,107.496-57.034c58.416-6.595,109.813,9.703,150.837,52.832
		c29.943,31.479,44.934,69.55,45.785,113.278c0.626,32.143-10.051,60.718-24.46,88.707c-17.404,33.807-39,64.949-59.388,96.872
		c-30.015,46.997-57.139,95.464-75.6,148.349C315.784,628.573,311.443,642.846,307.496,658.252z M307.906,361
		c34.456-0.014,62.928-28.367,63.039-62.775c0.109-34.526-28.572-63.219-63.177-63.197c-34.738,0.022-62.787,28.323-62.774,63.339
		C245.006,332.908,273.238,361.015,307.906,361z"/>
	<path fill-rule="evenodd" clip-rule="evenodd" fill="#FFFFFF" d="M306.912,373.317c-48.57,0.021-88.121-39.356-88.138-87.746
		c-0.017-49.057,39.278-88.705,87.945-88.736c48.479-0.031,88.661,40.167,88.507,88.537
		C395.07,333.576,355.184,373.297,306.912,373.317z"/>
	
		<image overflow="visible" width="512" height="512" xlink:href="toilet2.png"  transform="matrix(0.3652 0 0 0.3652 213.5 191.5747)">
	</image>
</g>
</svg>
