<?xml version="1.0" encoding="utf-8"?>
<!-- Generator: Adobe Illustrator 16.0.0, SVG Export Plug-In . SVG Version: 6.00 Build 0)  -->
<!DOCTYPE svg PUBLIC "-//W3C//DTD SVG 1.1//EN" "http://www.w3.org/Graphics/SVG/1.1/DTD/svg11.dtd">
<svg version="1.1" id="Layer_1" xmlns="http://www.w3.org/2000/svg" xmlns:xlink="http://www.w3.org/1999/xlink" x="0px" y="0px"
	 width="612px" height="792px" viewBox="0 0 612 792" enable-background="new 0 0 612 792" xml:space="preserve">
<g>
	<path fill-rule="evenodd" clip-rule="evenodd" d="M420.901,354.195c1.062,1.059,2.126,2.118,3.188,3.177
		c-0.991,2.745-1.808,5.568-3.006,8.219c-3.253,7.192-7.443,13.769-13.156,19.313c-4.709,4.57-10.181,7.775-16.924,9.613
		c0,3.83,0.107,7.681-0.024,11.524c-0.206,6.024-1.321,11.913-3.294,17.607c-1.496,4.322-2.834,8.754-4.876,12.818
		c-2.091,4.161-4.873,7.99-7.529,11.843c-0.782,1.135-0.965,1.858-0.236,3.05c3.49,5.702,6.651,11.574,8.612,18.013
		c3.449,11.325,1.327,21.638-5.658,31.066c-6.671,9.005-15.348,15.764-24.589,21.866c-10.727,7.083-22.332,12.162-34.912,14.904
		c-12.362,2.694-24.788,3.16-37.147,0.193c-4.351-1.045-8.639-2.616-12.717-4.471c-7.248-3.296-9.256-9.849-8.437-16.937
		c0.725-6.273,3.065-12.07,5.409-17.859c0.337-0.832,0.655-1.671,1.075-2.745c-2.226-0.21-4.216-0.392-6.205-0.586
		c-15.034-1.472-29.336-5.453-42.598-12.767c-3.74-2.063-7.198-4.642-10.756-7.029c-0.378-0.255-0.552-0.815-0.82-1.233
		c0.834-0.848,1.669-1.695,2.503-2.543c2.622,1.657,5.226,3.343,7.868,4.966c8.837,5.429,18.322,9.406,28.461,11.445
		c7.716,1.552,15.567,2.674,23.413,3.269c6.628,0.502,13.38,0.437,19.995-0.217c8.331-0.823,16.515-2.73,24.241-6.192
		c1.352-0.606,2.783-0.865,3.64,0.812c0.656,1.283,0.034,2.432-1.768,3.229c-6.585,2.916-13.47,4.977-20.591,5.782
		c-6.857,0.775-13.793,0.885-20.7,1.166c-1.292,0.053-1.996,0.365-2.45,1.59c-0.808,2.179-1.945,4.248-2.604,6.464
		c-1.374,4.616-2.89,9.238-3.664,13.97c-0.733,4.489,0.689,8.541,5.045,10.915c1.5,0.817,3.064,1.551,4.666,2.141
		c10.899,4.019,22.127,4.837,33.635,3.716c9.918-0.965,19.347-3.585,28.352-7.693c12.249-5.588,23.256-13.059,32.719-22.682
		c4.147-4.218,7.596-8.963,9.761-14.535c3.167-8.151,2.327-16.166-1.281-23.887c-2.223-4.756-4.979-9.265-7.531-13.865
		c-0.582-1.05-1.168-1.942-0.187-3.146c3.748-4.598,6.942-9.513,9.55-14.897c2.073-4.281,3.526-8.701,4.713-13.233
		c2.248-8.585,3.197-17.322,2.591-26.208c-0.219-3.206,0.109-3.623,3.209-4.15c3.72-0.632,6.973-2.332,9.979-4.448
		c7.514-5.289,12.659-12.541,16.533-20.741C418.036,361.331,419.408,357.734,420.901,354.195z"/>
	<path fill-rule="evenodd" clip-rule="evenodd" d="M442.873,237.505c-3.656-3.553-7.313-7.107-10.971-10.661
		c0.358-0.006,0.755-0.117,1.068-0.002c4.203,1.542,8.114,3.574,11.163,6.957c0.341,0.379,0.424,0.991,0.626,1.495
		C444.131,236.032,443.502,236.769,442.873,237.505z"/>
	<path fill-rule="evenodd" clip-rule="evenodd" d="M442.873,237.505c0.629-0.737,1.258-1.474,1.887-2.211
		c0.439,0.348,1.121,0.611,1.278,1.059c0.728,2.068,1.31,4.187,1.943,6.288C446.279,240.93,444.576,239.217,442.873,237.505z"/>
	<path fill-rule="evenodd" clip-rule="evenodd" fill="#FFFFFF" d="M262.155,231.537c-5.06,6.68-8.782,14.082-11.772,22.281
		C248.373,245.962,253.066,237.21,262.155,231.537z"/>
	<path fill-rule="evenodd" clip-rule="evenodd" d="M254.019,424.993c-10.83-0.308-18.498-0.96-25.919-3.332
		c-3.071-0.982-5.935-2.382-8.134-4.794c-3.494-3.832-3.89-9.145-1.149-14.023c3.248-5.782,8.142-9.885,13.689-13.296
		c8.77-5.392,18.299-8.863,28.404-10.575c8.987-1.523,18.049-1.585,27.109-0.32c6.644,0.929,13.138,2.376,19.133,5.472
		c1.936,1,3.801,2.273,5.412,3.736c4.682,4.249,4.994,9.517,1.095,14.551c-2.918,3.767-6.846,6.261-10.849,8.654
		c-10.092,6.037-20.983,10.045-32.525,12.071C263.914,424.256,257.411,424.621,254.019,424.993z M275.545,381.911
		c-5.396,0.689-10.84,1.12-16.178,2.12c-11.111,2.083-21.347,6.318-30.194,13.508c-2.968,2.412-5.499,5.248-6.981,8.862
		c-1.35,3.291-0.717,6.417,2.237,8.265c2.395,1.498,5.158,2.433,7.818,3.461c0.473,0.184,1.359-0.252,1.853-0.651
		c2.561-2.069,4.847-4.553,7.61-6.283c12.308-7.704,25.922-11.012,40.333-11.215c7.521-0.106,14.897,0.931,22.025,3.481
		c0.635,0.228,1.693,0.216,2.148-0.167c1.533-1.292,3.05-2.673,4.267-4.255c2.057-2.674,1.858-5.581-0.751-7.668
		c-2.167-1.733-4.614-3.271-7.17-4.338C293.956,383.436,284.838,382.465,275.545,381.911z M300.083,407.174
		c-14.985-4.673-29.677-3.24-44.131,2.128c-6.215,2.308-12.158,5.177-16.958,9.999C260.703,421.943,281.089,418.171,300.083,407.174
		z"/>
	<path fill-rule="evenodd" clip-rule="evenodd" fill="#FFFFFF" d="M300.083,407.174c-18.994,10.997-39.379,14.77-61.089,12.127
		c4.8-4.822,10.743-7.691,16.958-9.999C270.406,403.934,285.098,402.501,300.083,407.174z"/>
	<g id="XMLID_2_">
		<g>
			<path fill="#FFFFFF" d="M523.97,216.06c2.05,10.81-1.12,19.08-6.439,26.73c-5.33,7.66-12.4,13.14-21.9,15.26
				c0.16,0.48,0.33,0.95,0.49,1.42c2.17-0.14,4.36-0.22,6.52-0.46c1.53-0.17,3.17-1.07,4.521-0.73c2.25,0.58,5.32,1.38,6.149,3.04
				c0.811,1.61-0.01,5.42-1.449,6.51c-4.58,3.46-9.641,6.4-14.811,8.96c-3.09,1.54-6.729,1.98-10.13,2.91
				c0.021,0.51,0.05,1.02,0.07,1.53c2.069-0.01,4.16-0.2,6.2,0.02c1.819,0.2,3.579,0.87,5.369,1.32c-1.029,1.59-1.68,3.76-3.13,4.66
				c-9.62,5.98-19.79,7.62-30.529,3.07c-0.761-0.32-1.58-0.53-2.71-0.89c2.119,4.22,2.38,4.34,14.38,7.34
				c-5.66,4.26-6.811,4.17-31.69-1.77c2.63,1.9,5.26,3.81,7.89,5.72c-0.109,0.34-0.22,0.68-0.329,1.02
				c-3.761-1.35-7.631-2.49-11.261-4.13c-3.51-1.59-6.68-3.9-10.16-5.54c-4.829-2.28-9.84-3.53-15.289-2.12
				c-4.851,1.26-5.961,0.2-5.771-5.02c0.47-12.83,7.47-21.97,17.09-29.43c8.12-6.29,17.7-9.44,27.601-11.54
				c8.619-1.83,17.27-3.45,25.96-4.89c14.64-2.42,27.239-8.85,38.159-18.78C520.11,219.04,521.59,217.97,523.97,216.06z"/>
			<path d="M525.79,214.27c1.58,0.79,2.729,4.08,2.68,6.23c-0.319,11.86-4.5,22.29-12.58,31.08c-1.029,1.13-2.12,2.21-3.22,3.34
				c7.4,4.28,8.33,9.05,2.34,15.11c-3.63,3.68-8.17,6.46-12.67,9.92c1.9,4.73-1.06,8.02-5.25,10.65c-1.43,0.9-3.01,1.59-4.56,2.25
				c-5.37,2.29-11.17,2.98-15.96,7.33c-3.17,2.87-15.48,4.08-24.271,3.6l0.141-2.06c0.109-0.34,0.22-0.68,0.329-1.02
				c-2.63-1.91-5.26-3.82-7.89-5.72c24.88,5.94,26.03,6.03,31.69,1.77c-12-3-12.261-3.12-14.38-7.34c1.13,0.36,1.949,0.57,2.71,0.89
				c10.739,4.55,20.909,2.91,30.529-3.07c1.45-0.9,2.101-3.07,3.13-4.66c-1.79-0.45-3.55-1.12-5.369-1.32
				c-2.04-0.22-4.131-0.03-6.2-0.02c-0.021-0.51-0.05-1.02-0.07-1.53c3.4-0.93,7.04-1.37,10.13-2.91
				c5.17-2.56,10.23-5.5,14.811-8.96c1.439-1.09,2.26-4.9,1.449-6.51c-0.829-1.66-3.899-2.46-6.149-3.04
				c-1.351-0.34-2.99,0.56-4.521,0.73c-2.159,0.24-4.35,0.32-6.52,0.46c-0.16-0.47-0.33-0.94-0.49-1.42
				c9.5-2.12,16.57-7.6,21.9-15.26c5.319-7.65,8.489-15.92,6.439-26.73l-0.1-2.14C524.58,213.9,525.23,213.99,525.79,214.27z"/>
			<path d="M430.86,295.01c-5.42-2.86-11-3.65-16.98-1.45c-4.21,1.54-6.42-0.04-6.8-4.69c-0.75-9.19,2.16-17.33,7.479-24.73
				c8.23-11.44,19.58-18.32,32.91-21.92c8.63-2.33,17.44-4.05,26.24-5.66c16-2.94,30.53-8.83,42.6-20.05
				c0.671-0.62,1.41-1.46,2.23-1.61c1.71-0.32,3.67-0.96,5.33-0.98l0.1,2.14c-2.38,1.91-3.859,2.98-5.2,4.21
				c-10.92,9.93-23.52,16.36-38.159,18.78c-8.69,1.44-17.341,3.06-25.96,4.89c-9.9,2.1-19.48,5.25-27.601,11.54
				c-9.62,7.46-16.62,16.6-17.09,29.43c-0.19,5.22,0.92,6.28,5.771,5.02c5.449-1.41,10.46-0.16,15.289,2.12
				c3.48,1.64,6.65,3.95,10.16,5.54c3.63,1.64,7.5,2.78,11.261,4.13l-0.141,2.06c-3.54-0.2-6.51-0.67-8.09-1.41
				C439.63,300.2,435.35,297.38,430.86,295.01z"/>
		</g>
		<g>
		</g>
	</g>
	<g id="XMLID_3_">
		<g>
			<path fill="#FFFFFF" d="M255.42,232.83c19.74,5.55,34.92,16.79,43.92,34.78c-4.78,2.09-18.63,10.48-19.97,11.04
				c-3.29,1.39-6.2,3.66-9.4,5.29c-1.55,0.78-3.39,0.97-5.1,1.42c-0.17-0.4-0.35-0.79-0.52-1.19c3.52-3.26,7.04-6.52,10.56-9.77
				c-0.27-0.39-0.54-0.77-0.8-1.15c-1.48,0.96-2.9,2.01-4.43,2.85c-5.75,3.15-11.51,6.28-17.36,9.24c-0.76,0.39-2.06-0.28-3.1-0.46
				c0.59-0.86,1.01-1.95,1.81-2.55c2.39-1.82,4.93-3.45,7.41-5.14c-0.28-0.43-0.55-0.86-0.83-1.28c-2.03,1.07-3.96,2.4-6.1,3.15
				c-4.36,1.54-8.78,3.01-13.29,3.93c-1.2,0.25-2.82-1.62-4.25-2.51c0.98-1.04,1.77-2.41,2.96-3.05c2.94-1.59,6.05-2.85,9.09-4.24
				c-0.18-0.47-0.37-0.94-0.56-1.42c-1.39,0.53-2.79,1.03-4.16,1.59c-6.8,2.76-13.75,3.97-20.94,2.68
				c-0.66-0.12-1.31-0.26-1.97-0.42c-2.52-0.61-4.59-1.64-4.04-4.76c4.03-0.7,7.98-1.39,11.94-2.08c-0.05-0.49-0.11-0.98-0.17-1.47
				c-3.05-0.05-6.13,0.13-9.15-0.22c-3.56-0.4-7.32-0.71-10.52-2.12c-2.02-0.9-4.45-3.75-4.43-5.7c0.04-3.29,3.44-3.43,6.27-3.41
				c2.9,0.03,5.8-0.13,8.7-0.2c0.04-0.54,0.08-1.09,0.11-1.63c-1.42-0.27-2.88-0.43-4.27-0.82c-5.87-1.62-11.89-2.92-17.5-5.21
				c-1.81-0.75-3.55-4.27-3.37-6.36c0.11-1.34,3.75-3.34,5.83-3.38c4.1-0.07,8.22,1.01,12.32,1.66c1.36,0.22,2.7,0.57,4.47,0.24
				c-20.41-6.59-33.24-19.35-36.04-41.78c1.13,0.61,1.65,0.71,1.8,1c7.92,15.32,21.43,22.57,37.57,25.89
				C230.41,227.85,243.18,229.38,255.42,232.83z"/>
			<path d="M300.93,267.37c1.19,2.74,2.22,5.64,3.09,8.73c-1.22-1.14-1.54-1.3-1.63-1.54c-0.74-1.97-1.56-3.87-2.43-5.7
				c-0.04-0.09-0.08-0.18-0.13-0.26C300.48,267.99,300.83,267.59,300.93,267.37z"/>
			<path d="M300.83,267.15c0.11,0.01,0.15,0.08,0.1,0.22C300.9,267.29,300.87,267.22,300.83,267.15z"/>
			<path d="M269.97,283.94c3.2-1.63,6.11-3.9,9.4-5.29c1.34-0.56,15.19-8.95,19.97-11.04c0.17,0.33,0.33,0.66,0.49,0.99
				c-1.74,1.6-5.67,4.69-12.77,9.91c-34.26,25.18-6.9,2.52-10.25,3.99c-2.87,1.27-5.54,3-8.42,4.27c-2.63,1.16-5.26,1.54-6.08-2.25
				c-14.02,5.26-14.75,5.27-16.9,0.34c-12.27,1.94-13.71,1.36-14.65-5.25c-3.69-0.48-7.3-0.72-10.8-1.37l0.4-2.2
				c7.19,1.29,14.14,0.08,20.94-2.68c1.37-0.56,2.77-1.06,4.16-1.59c0.19,0.48,0.38,0.95,0.56,1.42c-3.04,1.39-6.15,2.65-9.09,4.24
				c-1.19,0.64-1.98,2.01-2.96,3.05c1.43,0.89,3.05,2.76,4.25,2.51c4.51-0.92,8.93-2.39,13.29-3.93c2.14-0.75,4.07-2.08,6.1-3.15
				c0.28,0.42,0.55,0.85,0.83,1.28c-2.48,1.69-5.02,3.32-7.41,5.14c-0.8,0.6-1.22,1.69-1.81,2.55c1.04,0.18,2.34,0.85,3.1,0.46
				c5.85-2.96,11.61-6.09,17.36-9.24c1.53-0.84,2.95-1.89,4.43-2.85c0.26,0.38,0.53,0.76,0.8,1.15c-3.52,3.25-7.04,6.51-10.56,9.77
				c0.17,0.4,0.35,0.79,0.52,1.19C266.58,284.91,268.42,284.72,269.97,283.94z"/>
			<path d="M212.12,274.08c-0.81-4.42-4.09-4.86-7.13-6.14c-7.18-3.03-8.47-6.88-4.66-13.71c-5.7-2.01-11.91-3.7-12.36-11.21
				c-0.3-5.06,2.89-7.66,8.31-8.23c-1.23-0.95-1.82-1.4-2.41-1.85c-0.6-0.45-1.23-0.87-1.81-1.35
				c-10.39-8.68-16.09-19.69-16.32-33.17l2.8-0.04c2.8,22.43,15.63,35.19,36.04,41.78c-1.77,0.33-3.11-0.02-4.47-0.24
				c-4.1-0.65-8.22-1.73-12.32-1.66c-2.08,0.04-5.72,2.04-5.83,3.38c-0.18,2.09,1.56,5.61,3.37,6.36c5.61,2.29,11.63,3.59,17.5,5.21
				c1.39,0.39,2.85,0.55,4.27,0.82c-0.03,0.54-0.07,1.09-0.11,1.63c-2.9,0.07-5.8,0.23-8.7,0.2c-2.83-0.02-6.23,0.12-6.27,3.41
				c-0.02,1.95,2.41,4.8,4.43,5.7c3.2,1.41,6.96,1.72,10.52,2.12c3.02,0.35,6.1,0.17,9.15,0.22c0.06,0.49,0.12,0.98,0.17,1.47
				c-3.96,0.69-7.91,1.38-11.94,2.08c-0.55,3.12,1.52,4.15,4.04,4.76c0.66,0.16,1.31,0.3,1.97,0.42l-0.4,2.2
				c-0.74-0.12-1.48-0.27-2.21-0.45C215.61,277.28,212.4,275.65,212.12,274.08z"/>
			<path d="M299.34,267.61c-9-17.99-24.18-29.23-43.92-34.78c-12.24-3.45-25.01-4.98-37.51-7.56
				c-16.14-3.32-29.65-10.57-37.57-25.89c-0.15-0.29-0.67-0.39-1.8-1l-2.8,0.04c-0.01-0.32-0.01-0.64-0.01-0.96
				c0.01-1.8,1.94-3.6,2.99-5.4c1.39,1.18,3.34,2.08,4.08,3.59c5.76,11.6,15.36,19.1,27.13,22.99c9.45,3.13,19.62,4.19,29.52,5.86
				c17.58,2.98,33.48,9.44,46.62,21.81c6.28,5.91,11.21,12.67,14.76,20.84C300.6,267.11,300.08,267.28,299.34,267.61z"/>
		</g>
		<g>
		</g>
	</g>
	<path fill="none" d="M444.76,235.294c-0.202-0.503-0.285-1.116-0.626-1.495c-3.049-3.383-6.96-5.415-11.163-6.957
		c-0.313-0.115-0.71-0.004-1.068,0.002c-0.912-0.477-1.773-1.161-2.743-1.396c-6.951-1.678-13.875-3.531-20.899-4.822
		c-12.21-2.244-24.467-4.264-36.744-6.105c-7.926-1.188-15.936-1.806-23.885-2.852c-3.299-0.434-6.772,0.322-9.897-1.413
		c-0.791-0.439-1.682-0.717-2.55-0.998c-9.031-2.915-18.249-4.116-27.722-3.025c-9.874,1.137-19.093,4.17-27.534,9.458
		c-2.277,1.426-4.369,3.221-6.778,4.352c-6.401,3.004-12.654,6.225-17.986,10.93c-8.971,7.915-12.67,18.29-7.469,30.041
		c0.224,0.506,0.256,1.174,0.164,1.731c-0.49,2.955-1.081,5.894-1.578,8.848c-2.086,12.406-1.303,24.801,0.821,37.069
		c1.142,6.594,3.06,13.109,5.219,19.459c3.266,9.602,8.271,18.273,15.649,25.407c0.97,0.938,2.028,1.785,3.437,3.016
		c-1.112,0-1.708-0.035-2.299,0.005c-4.765,0.327-9.567,0.393-14.285,1.06c-10.079,1.427-19.937,3.879-29.461,7.516
		c-14.756,5.635-28.432,13.073-39.958,24.094c-5.089,4.866-9.539,10.171-12.468,16.646c-2.932,6.481-3.99,13.234-2.783,20.248
		c1.649,9.583,7.063,16.775,14.661,22.527c0.505,0.382,0.952,0.94,1.228,1.513c4.45,9.222,10.979,16.747,18.855,23.171
		c0.354,0.289,0.933,0.305,1.407,0.447c0.269,0.418,0.442,0.979,0.82,1.233c3.558,2.388,7.016,4.966,10.756,7.029
		c13.262,7.313,27.564,11.295,42.598,12.767c1.989,0.194,3.979,0.376,6.205,0.586c-0.42,1.074-0.738,1.913-1.075,2.745
		c-2.344,5.789-4.684,11.586-5.409,17.859c-0.819,7.088,1.189,13.641,8.437,16.937c4.078,1.854,8.366,3.426,12.717,4.471
		c12.359,2.967,24.785,2.501,37.147-0.193c12.58-2.742,24.186-7.821,34.912-14.904c9.241-6.103,17.918-12.861,24.589-21.866
		c6.985-9.429,9.107-19.741,5.658-31.066c-1.961-6.438-5.122-12.311-8.612-18.013c-0.729-1.191-0.546-1.915,0.236-3.05
		c2.656-3.853,5.438-7.682,7.529-11.843c2.042-4.064,3.38-8.496,4.876-12.818c1.973-5.694,3.088-11.583,3.294-17.607
		c0.132-3.843,0.024-7.694,0.024-11.524c6.743-1.838,12.215-5.042,16.924-9.613c5.713-5.544,9.903-12.121,13.156-19.313
		c1.198-2.651,2.015-5.474,3.006-8.219c0.232-0.33,0.559-0.626,0.684-0.993c3.552-10.406,5.312-21.212,7.079-32.013
		c1.441-8.81,2.872-17.623,4.201-26.45c1.385-9.191,2.632-18.403,3.979-27.6c0.098-0.668,0.351-1.501,0.83-1.898
		c4.549-3.77,7.09-8.596,7.357-14.452c0.172-3.763-0.143-7.548-0.239-11.324c-0.634-2.101-1.216-4.22-1.943-6.288
		C445.881,235.906,445.199,235.643,444.76,235.294z"/>
	<path fill-rule="evenodd" clip-rule="evenodd" fill="#FFFFFF" d="M420.901,354.195c-1.493,3.54-2.865,7.136-4.504,10.606
		c-3.874,8.2-9.02,15.452-16.533,20.741c-3.006,2.116-6.259,3.816-9.979,4.448c-3.1,0.527-3.428,0.944-3.209,4.15
		c0.606,8.886-0.343,17.623-2.591,26.208c-1.187,4.532-2.64,8.952-4.713,13.233c-2.607,5.385-5.802,10.3-9.55,14.897
		c-0.981,1.204-0.396,2.097,0.187,3.146c2.552,4.601,5.309,9.109,7.531,13.865c3.608,7.721,4.448,15.735,1.281,23.887
		c-2.165,5.572-5.613,10.317-9.761,14.535c-9.463,9.623-20.47,17.094-32.719,22.682c-9.005,4.108-18.434,6.729-28.352,7.693
		c-11.507,1.121-22.735,0.303-33.635-3.716c-1.602-0.59-3.166-1.323-4.666-2.141c-4.356-2.374-5.778-6.426-5.045-10.915
		c0.773-4.731,2.29-9.354,3.664-13.97c0.66-2.216,1.797-4.285,2.604-6.464c0.454-1.225,1.158-1.537,2.45-1.59
		c6.906-0.281,13.843-0.391,20.7-1.166c7.121-0.806,14.006-2.866,20.591-5.782c1.802-0.798,2.424-1.946,1.768-3.229
		c-0.856-1.678-2.288-1.419-3.64-0.812c-7.727,3.462-15.91,5.369-24.241,6.192c-6.614,0.653-13.367,0.719-19.995,0.217
		c-7.846-0.595-15.696-1.717-23.413-3.269c-10.139-2.039-19.624-6.017-28.461-11.445c-2.642-1.623-5.246-3.309-7.868-4.966
		c-1.8-1.695-3.603-3.389-5.399-5.088c-3.696-3.497-7.056-7.271-9.524-11.95c1.197,0.498,2.391,1.003,3.591,1.493
		c9.721,3.971,19.89,5.863,30.313,6.741c12.141,1.023,24.264,0.839,36.349-0.479c17.76-1.935,34.917-6.299,51.146-13.882
		c12.763-5.963,24.358-13.637,33.758-24.296c7.111-8.063,12.182-17.168,13.482-28.007c0.793-6.613,0.614-13.182-3.618-18.813
		c-1.634-2.173-3.754-3.979-5.701-6.004c1.625-0.647,3.438-1.274,5.172-2.073c8.137-3.748,14.039-9.92,18.585-17.474
		c6.338-10.535,9.353-22.165,10.697-34.242c0.681-6.12,0.971-12.305,1.045-18.465c0.051-4.255-0.572-8.519-0.896-12.778
		c-0.063-0.847-0.136-1.692-0.213-2.653c17.3,2.711,32.39-3.808,47.706-10.853c-0.302,2.368-0.532,4.572-0.869,6.76
		c-1.681,10.882-3.258,21.781-5.123,32.631c-2.06,11.984-4.361,23.927-6.629,35.874
		C422.258,349.881,421.502,352.023,420.901,354.195z"/>
	<path fill-rule="evenodd" clip-rule="evenodd" fill="#FFFFFF" d="M271.866,360.754c7.816,0.611,15.641,1.132,23.446,1.855
		c12.8,1.186,25.469,3.307,38.036,5.958c6.049,1.276,11.986,3.031,17.227,6.581c4.814,3.261,7.39,7.749,7.691,13.508
		c0.489,9.29-2.361,17.639-7.439,25.291c-7.468,11.251-17.781,19.317-29.382,25.861c-14.946,8.43-31.062,13.479-47.929,16.313
		c-9.877,1.661-19.824,2.402-29.826,2.473c-12.954,0.093-25.774-1.025-38.23-4.799c-8.54-2.587-16.521-6.38-22.737-12.967
		c-8.694-9.212-10.81-19.912-6.206-31.768c3.126-8.052,8.873-14.142,15.346-19.589c11.926-10.037,25.566-16.921,40.31-21.777
		C245.062,363.448,258.23,360.962,271.866,360.754z M254.019,424.993c3.392-0.372,9.895-0.737,16.266-1.856
		c11.542-2.026,22.433-6.034,32.525-12.071c4.003-2.394,7.931-4.888,10.849-8.654c3.899-5.034,3.587-10.302-1.095-14.551
		c-1.611-1.463-3.477-2.737-5.412-3.736c-5.995-3.096-12.489-4.543-19.133-5.472c-9.06-1.265-18.122-1.203-27.109,0.32
		c-10.105,1.712-19.634,5.183-28.404,10.575c-5.548,3.411-10.441,7.514-13.689,13.296c-2.74,4.879-2.345,10.191,1.149,14.023
		c2.199,2.412,5.063,3.812,8.134,4.794C235.521,424.033,243.189,424.686,254.019,424.993z"/>
	<path fill-rule="evenodd" clip-rule="evenodd" fill="#FFFFFF" d="M275.545,381.911c9.293,0.554,18.411,1.524,27.016,5.12
		c2.556,1.067,5.003,2.604,7.17,4.338c2.609,2.087,2.808,4.994,0.751,7.668c-1.217,1.582-2.733,2.963-4.267,4.255
		c-0.455,0.383-1.513,0.395-2.148,0.167c-7.128-2.551-14.504-3.588-22.025-3.481c-14.411,0.203-28.024,3.511-40.333,11.215
		c-2.764,1.73-5.049,4.214-7.61,6.283c-0.494,0.399-1.38,0.835-1.853,0.651c-2.66-1.028-5.423-1.963-7.818-3.461
		c-2.954-1.848-3.587-4.974-2.237-8.265c1.482-3.614,4.013-6.45,6.981-8.862c8.848-7.19,19.083-11.425,30.194-13.508
		C264.705,383.031,270.149,382.6,275.545,381.911z"/>
	<path fill-rule="evenodd" clip-rule="evenodd" fill="#FFFFFF" d="M350.681,216.443c2.661,0.297,5.331,0.529,7.981,0.904
		c9.933,1.403,19.885,2.698,29.782,4.322c13.204,2.167,26.488,4.051,39.295,8.1c3.521,1.113,6.906,2.788,10.166,4.551
		c3.899,2.108,5.882,5.748,6.064,10.077c0.16,3.776,0.01,7.612-0.479,11.359c-0.803,6.146-5.168,9.666-10.211,12.402
		c-8.923,4.844-18.361,8.382-28.318,10.394c-5.374,1.086-10.808,1.266-16.259,0.22c-1.638-0.314-2.175-1.159-2.453-2.64
		c-2.062-10.971-5.757-21.372-11.179-31.133c-5.982-10.771-13.486-20.257-23.622-27.468c-0.295-0.209-0.558-0.462-0.834-0.695
		C350.636,216.705,350.658,216.574,350.681,216.443z"/>
	<g id="XMLID_1_">
		<g>
			<path d="M447.98,242.64c0.1,3.78,0.409,7.56,0.239,11.33c-0.27,5.85-2.81,10.68-7.359,14.45c-0.48,0.39-0.73,1.23-0.83,1.9
				c-1.34,9.19-2.59,18.4-3.98,27.6c-1.33,8.82-2.76,17.64-4.2,26.45c-1.77,10.8-3.52,21.6-7.08,32.01
				c-0.119,0.37-0.449,0.66-0.68,0.99c-1.06-1.06-2.13-2.12-3.189-3.18c0.6-2.17,1.359-4.31,1.779-6.52
				c2.261-11.94,4.57-23.89,6.63-35.87c1.86-10.85,3.44-21.75,5.12-32.63c0.34-2.19,0.57-4.39,0.87-6.76
				c-15.319,7.04-30.41,13.56-47.71,10.85c0.08,0.96,0.15,1.81,0.21,2.66c0.33,4.26,0.95,8.52,0.9,12.77
				c-0.07,6.16-0.36,12.35-1.04,18.47c-1.351,12.08-4.36,23.71-10.7,34.24c-4.55,7.55-10.45,13.73-18.59,17.47
				c-1.73,0.8-3.54,1.43-5.17,2.08c1.95,2.02,4.069,3.83,5.7,6c4.229,5.63,4.409,12.2,3.619,18.81
				c-1.3,10.84-6.369,19.95-13.479,28.01c-9.4,10.66-21,18.33-33.76,24.301c-16.23,7.58-33.38,11.939-51.15,13.88
				c-12.08,1.319-24.2,1.5-36.34,0.479c-10.43-0.88-20.6-2.77-30.32-6.739c-1.2-0.49-2.39-1-3.59-1.5
				c2.47,4.68,5.83,8.46,9.53,11.949c1.79,1.7,3.6,3.4,5.4,5.091c-0.84,0.85-1.67,1.699-2.51,2.539c-0.47-0.14-1.05-0.149-1.4-0.439
				c-7.88-6.43-14.41-13.95-18.86-23.17c-0.28-0.58-0.72-1.13-1.23-1.521c-7.6-5.75-13.01-12.939-14.66-22.52
				c-1.21-7.021-0.15-13.771,2.78-20.25c2.93-6.48,7.38-11.78,12.47-16.65c11.53-11.02,25.2-18.46,39.96-24.09
				c9.52-3.64,19.38-6.09,29.46-7.52c4.72-0.67,9.52-0.73,14.29-1.06c0.59-0.04,1.18,0,2.3,0c-1.41-1.23-2.47-2.08-3.44-3.02
				c-7.38-7.13-12.38-15.8-15.65-25.41c-2.16-6.35-4.08-12.86-5.22-19.46c-2.12-12.26-2.91-24.66-0.82-37.06
				c0.5-2.96,1.09-5.9,1.58-8.85c0.09-0.56,0.06-1.23-0.17-1.73c-5.2-11.76-1.5-22.13,7.47-30.05c5.34-4.7,11.59-7.92,17.99-10.93
				c2.41-1.13,4.5-2.92,6.78-4.35c8.44-5.29,17.66-8.32,27.53-9.46c9.47-1.09,18.69,0.11,27.72,3.03c0.87,0.28,1.761,0.56,2.551,1
				c3.13,1.73,6.6,0.98,9.899,1.41c7.95,1.05,15.96,1.66,23.89,2.85c12.271,1.84,24.53,3.86,36.74,6.11
				c7.021,1.29,13.95,3.14,20.9,4.82c0.97,0.23,1.83,0.92,2.74,1.39c3.659,3.56,7.319,7.11,10.97,10.67
				C444.58,239.22,446.28,240.93,447.98,242.64z M443.49,255.76c0.49-3.75,0.64-7.59,0.479-11.36c-0.18-4.33-2.17-7.97-6.06-10.08
				c-3.26-1.76-6.65-3.44-10.17-4.55c-12.811-4.05-26.09-5.93-39.3-8.1c-9.891-1.63-19.851-2.92-29.78-4.32
				c-2.65-0.38-5.32-0.61-7.98-0.91c-0.02,0.13-0.04,0.26-0.069,0.4c0.279,0.23,0.54,0.48,0.84,0.69
				c10.13,7.21,17.64,16.7,23.62,27.47c5.42,9.76,9.12,20.16,11.18,31.13c0.28,1.48,0.81,2.33,2.45,2.64
				c5.45,1.05,10.89,0.87,16.26-0.22c9.96-2.01,19.4-5.55,28.32-10.39C438.32,265.42,442.69,261.9,443.49,255.76z M383.34,316.9
				c0.76-5.19,0.83-10.48,1.311-17.19c-0.66-5.89-1.131-13.23-2.381-20.43c-3.109-17.9-10.149-34.08-22.199-47.89
				c-7.511-8.6-16.61-14.79-27.53-18.2c-8.48-2.65-17.13-3.31-25.97-2.23c-8.65,1.06-16.65,3.85-24.01,8.41
				c-14.95,9.25-23.99,22.89-29,39.48c-2.24,7.42-3.59,15.03-3.74,22.77c-0.14,6.84-0.25,13.77,0.67,20.52
				c0.99,7.23,2.83,14.41,4.98,21.4c2.93,9.55,7.42,18.41,14.5,25.68c4.58,4.71,9.96,7.82,16.77,8.04c3.23,0.1,6.46,0.38,9.66,0.82
				c7.21,0.99,14.39,2.21,21.61,3.17c8.07,1.08,16.08,2.42,23.84,4.96c4.131,1.34,8.12,0.99,12.061-0.47
				c9.93-3.7,16.37-11.11,21.12-20.23C379.71,336.53,381.88,326.79,383.34,316.9z M350.83,413.95c5.08-7.66,7.93-16,7.439-25.29
				c-0.31-5.76-2.88-10.25-7.689-13.51c-5.25-3.55-11.18-5.31-17.23-6.58c-12.569-2.65-25.239-4.78-38.04-5.96
				c-7.8-0.72-15.63-1.24-23.44-1.86c-13.64,0.21-26.81,2.7-39.7,6.94c-14.74,4.86-28.38,11.74-40.31,21.78
				c-6.47,5.45-12.22,11.54-15.34,19.589c-4.61,11.86-2.49,22.561,6.2,31.771c6.22,6.59,14.2,10.38,22.74,12.96
				c12.46,3.78,25.28,4.9,38.23,4.8c10-0.07,19.95-0.81,29.83-2.47c16.86-2.83,32.98-7.88,47.93-16.311
				C333.05,433.26,343.36,425.2,350.83,413.95z M250.38,253.82c2.99-8.2,6.72-15.6,11.77-22.28
				C253.07,237.21,248.37,245.96,250.38,253.82z"/>
			<path fill="#FFFFFF" d="M384.65,299.71c-0.48,6.71-0.551,12-1.311,17.19c-1.46,9.89-3.63,19.63-8.31,28.61
				c-4.75,9.12-11.19,16.53-21.12,20.23c-3.94,1.46-7.93,1.81-12.061,0.47c-7.76-2.54-15.77-3.88-23.84-4.96
				c-7.22-0.96-14.4-2.18-21.61-3.17c-3.2-0.44-6.43-0.72-9.66-0.82c-6.81-0.22-12.19-3.33-16.77-8.04
				c-7.08-7.27-11.57-16.13-14.5-25.68c-2.15-6.99-3.99-14.17-4.98-21.4c-0.92-6.75-0.81-13.68-0.67-20.52
				c0.15-7.74,1.5-15.35,3.74-22.77c5.01-16.59,14.05-30.23,29-39.48c7.36-4.56,15.36-7.35,24.01-8.41
				c8.84-1.08,17.49-0.42,25.97,2.23c10.92,3.41,20.02,9.6,27.53,18.2c12.05,13.81,19.09,29.99,22.199,47.89
				C383.52,286.48,383.99,293.82,384.65,299.71z"/>
		</g>
		<g>
		</g>
	</g>
</g>
<g>
	<path fill-rule="evenodd" clip-rule="evenodd" d="M280.031,290.06c-5.212-0.009-9.342-3.868-9.394-8.778
		c-0.052-4.961,4.321-8.977,9.662-8.87c4.959,0.099,9.015,4.053,9.013,8.79C289.31,286.168,285.224,290.068,280.031,290.06z
		 M280.985,279.328c-0.015-0.5-0.03-1-0.045-1.501c-1.373-0.756-2.807-2.184-4.102-2.067c-1.168,0.104-2.183,1.9-3.266,2.951
		c1.171,1.095,2.266,2.939,3.535,3.068C278.304,281.9,279.685,280.217,280.985,279.328z"/>
	<path fill-rule="evenodd" clip-rule="evenodd" d="M337.762,290.077c-5.115-0.034-9.402-4.127-9.326-8.904
		c0.076-4.828,4.411-8.819,9.487-8.736c5.151,0.085,9.452,4.165,9.368,8.888C347.205,286.092,342.828,290.111,337.762,290.077z
		 M334.035,282.54c0.498,0.017,0.996,0.035,1.495,0.052c0.909-1.307,2.513-2.617,2.508-3.92c-0.004-1.038-1.944-2.841-3.075-2.881
		c-1.104-0.04-3.133,1.674-3.195,2.711C331.689,279.797,333.206,281.189,334.035,282.54z"/>
	<path fill-rule="evenodd" clip-rule="evenodd" d="M308.963,323.293c-5.368,0.07-10.139-3.717-10.579-8.683
		c-0.086-0.968,0.96-2.036,1.484-3.058c0.754,0.732,1.899,1.333,2.198,2.219c1.39,4.124,3.392,5.993,6.979,5.827
		c3.676-0.169,5.852-2.144,6.785-5.741c0.227-0.87,1.369-1.503,2.09-2.244c0.479,1.061,1.448,2.169,1.351,3.175
		C318.795,319.7,314.375,323.222,308.963,323.293z"/>
	<path fill-rule="evenodd" clip-rule="evenodd" fill="#FFFFFF" d="M280.985,279.328c-1.3,0.889-2.681,2.572-3.878,2.451
		c-1.269-0.129-2.364-1.973-3.535-3.068c1.083-1.05,2.098-2.846,3.266-2.951c1.295-0.116,2.729,1.312,4.102,2.067
		C280.955,278.328,280.97,278.828,280.985,279.328z"/>
	<path fill-rule="evenodd" clip-rule="evenodd" fill="#FFFFFF" d="M334.035,282.54c-0.829-1.351-2.346-2.743-2.268-4.039
		c0.062-1.037,2.091-2.75,3.195-2.711c1.131,0.041,3.071,1.844,3.075,2.881c0.005,1.304-1.599,2.613-2.508,3.92
		C335.031,282.575,334.533,282.557,334.035,282.54z"/>
</g>
<ellipse fill="none" stroke="#FFF200" stroke-width="4" stroke-miterlimit="10" cx="331.764" cy="173.061" rx="58.827" ry="19"/>
<ellipse fill="none" stroke="#000000" stroke-width="2" stroke-miterlimit="10" cx="332.405" cy="173.583" rx="60.595" ry="21.917"/>
<ellipse fill="none" stroke="#000000" stroke-width="2" stroke-miterlimit="10" cx="332" cy="173.583" rx="56.333" ry="16"/>
</svg>
