<?xml version="1.0" encoding="utf-8"?>
<!-- Generator: Adobe Illustrator 16.0.0, SVG Export Plug-In . SVG Version: 6.00 Build 0)  -->
<!DOCTYPE svg PUBLIC "-//W3C//DTD SVG 1.1//EN" "http://www.w3.org/Graphics/SVG/1.1/DTD/svg11.dtd">
<svg version="1.1" id="Layer_1" xmlns="http://www.w3.org/2000/svg" xmlns:xlink="http://www.w3.org/1999/xlink" x="0px" y="0px"
	 width="16px" height="16px" viewBox="298 388 16 16" enable-background="new 298 388 16 16" xml:space="preserve">
<g>
	
		<image overflow="visible" opacity="0.75" enable-background="new    " width="1600" height="1550" xlink:href="1A6E3892BF449535.png"  transform="matrix(0.0087 0 0 0.0087 299.3979 390.0488)">
	</image>
	<g>
		<g>
			<path d="M309.014,396.33c0.039,0.038,0.078,0.077,0.116,0.116c-0.035,0.1-0.065,0.203-0.109,0.3
				c-0.119,0.263-0.271,0.503-0.48,0.705c-0.172,0.167-0.371,0.284-0.617,0.351c0,0.14,0.003,0.281-0.001,0.422
				c-0.008,0.219-0.049,0.434-0.121,0.643c-0.055,0.157-0.104,0.319-0.178,0.467c-0.076,0.152-0.178,0.292-0.274,0.433
				c-0.029,0.042-0.036,0.068-0.009,0.111c0.128,0.209,0.242,0.423,0.314,0.658c0.126,0.414,0.049,0.79-0.207,1.134
				c-0.244,0.329-0.561,0.576-0.898,0.799c-0.391,0.259-0.814,0.444-1.274,0.544c-0.452,0.099-0.905,0.116-1.356,0.008
				c-0.159-0.039-0.316-0.096-0.465-0.164c-0.265-0.12-0.338-0.359-0.308-0.618c0.027-0.229,0.112-0.44,0.198-0.652
				c0.012-0.029,0.023-0.061,0.039-0.1c-0.082-0.008-0.153-0.015-0.227-0.022c-0.549-0.054-1.071-0.198-1.555-0.465
				c-0.138-0.076-0.263-0.171-0.394-0.258c-0.013-0.008-0.02-0.029-0.03-0.045c0.031-0.03,0.061-0.062,0.091-0.092
				c0.096,0.061,0.191,0.121,0.288,0.181c0.322,0.198,0.669,0.344,1.039,0.419c0.282,0.056,0.569,0.097,0.854,0.119
				c0.242,0.018,0.489,0.016,0.73-0.008c0.304-0.031,0.603-0.101,0.885-0.227c0.05-0.022,0.102-0.032,0.133,0.029
				c0.023,0.047,0.001,0.089-0.065,0.118c-0.24,0.106-0.492,0.181-0.751,0.211c-0.25,0.028-0.504,0.032-0.756,0.043
				c-0.048,0.002-0.073,0.013-0.089,0.058c-0.029,0.08-0.071,0.155-0.096,0.236c-0.049,0.168-0.105,0.337-0.134,0.51
				c-0.026,0.164,0.025,0.312,0.184,0.398c0.055,0.029,0.112,0.057,0.171,0.078c0.398,0.147,0.808,0.177,1.228,0.136
				c0.362-0.034,0.707-0.13,1.035-0.281c0.448-0.203,0.849-0.477,1.195-0.827c0.151-0.154,0.277-0.328,0.356-0.531
				c0.116-0.298,0.085-0.59-0.047-0.872c-0.081-0.174-0.183-0.338-0.274-0.506c-0.021-0.038-0.043-0.071-0.008-0.114
				c0.138-0.169,0.254-0.348,0.35-0.545c0.075-0.156,0.128-0.317,0.172-0.483c0.082-0.313,0.116-0.632,0.095-0.956
				c-0.008-0.118,0.003-0.133,0.117-0.152c0.136-0.023,0.255-0.085,0.364-0.162c0.274-0.193,0.462-0.458,0.604-0.758
				C308.909,396.59,308.96,396.459,309.014,396.33z"/>
			<path d="M309.816,392.069c-0.134-0.13-0.268-0.26-0.4-0.389c0.013,0,0.026-0.004,0.039,0c0.152,0.057,0.296,0.131,0.407,0.254
				c0.012,0.014,0.016,0.037,0.022,0.055C309.862,392.016,309.839,392.042,309.816,392.069z"/>
			<path d="M309.816,392.069c0.022-0.027,0.046-0.054,0.068-0.081c0.017,0.013,0.041,0.022,0.047,0.039
				c0.027,0.075,0.048,0.153,0.07,0.229C309.94,392.194,309.878,392.132,309.816,392.069z"/>
			<path fill="#FFFFFF" d="M303.218,391.851c-0.185,0.244-0.32,0.514-0.43,0.813C302.714,392.378,302.886,392.059,303.218,391.851z"
				/>
			<path d="M302.921,398.915c-0.396-0.012-0.676-0.035-0.947-0.122c-0.112-0.035-0.216-0.087-0.297-0.176
				c-0.126-0.139-0.142-0.333-0.042-0.511c0.119-0.212,0.297-0.361,0.5-0.486c0.319-0.196,0.668-0.323,1.036-0.386
				c0.328-0.056,0.659-0.058,0.99-0.012c0.242,0.035,0.479,0.087,0.698,0.199c0.071,0.037,0.139,0.084,0.198,0.138
				c0.17,0.154,0.182,0.348,0.04,0.531c-0.107,0.137-0.25,0.228-0.396,0.315c-0.369,0.22-0.766,0.367-1.188,0.44
				C303.282,398.888,303.044,398.9,302.921,398.915z M303.707,397.342c-0.197,0.025-0.396,0.041-0.591,0.077
				c-0.406,0.076-0.78,0.231-1.103,0.493c-0.108,0.089-0.201,0.191-0.254,0.323c-0.05,0.121-0.026,0.234,0.082,0.303
				c0.087,0.055,0.188,0.088,0.286,0.126c0.017,0.008,0.05-0.009,0.067-0.023c0.094-0.076,0.177-0.167,0.278-0.229
				c0.45-0.281,0.947-0.402,1.474-0.41c0.274-0.004,0.543,0.034,0.803,0.128c0.023,0.008,0.062,0.008,0.079-0.007
				c0.056-0.047,0.111-0.097,0.156-0.155c0.075-0.098,0.067-0.204-0.027-0.279c-0.08-0.063-0.168-0.119-0.262-0.159
				C304.378,397.398,304.046,397.361,303.707,397.342z M304.603,398.264c-0.547-0.17-1.084-0.118-1.611,0.078
				c-0.227,0.085-0.444,0.189-0.619,0.365C303.165,398.804,303.909,398.666,304.603,398.264z"/>
			<path fill="#FFFFFF" d="M304.603,398.264c-0.693,0.402-1.438,0.54-2.23,0.443c0.175-0.176,0.393-0.28,0.619-0.365
				C303.519,398.146,304.055,398.094,304.603,398.264z"/>
			<g>
				<g>
					<path fill="#FFFFFF" d="M312.777,391.286c0.075,0.395-0.041,0.697-0.235,0.976c-0.194,0.28-0.452,0.48-0.8,0.557
						c0.006,0.018,0.012,0.035,0.019,0.052c0.079-0.005,0.158-0.008,0.237-0.017c0.056-0.006,0.116-0.039,0.165-0.027
						c0.083,0.021,0.195,0.05,0.225,0.111c0.03,0.059,0,0.198-0.053,0.237c-0.167,0.126-0.353,0.234-0.541,0.327
						c-0.112,0.057-0.245,0.073-0.37,0.106c0.001,0.019,0.002,0.037,0.003,0.056c0.075,0,0.152-0.008,0.227,0
						c0.066,0.008,0.131,0.032,0.195,0.048c-0.037,0.058-0.061,0.137-0.113,0.17c-0.352,0.218-0.723,0.278-1.114,0.112
						c-0.028-0.012-0.059-0.019-0.1-0.032c0.077,0.154,0.087,0.158,0.524,0.268c-0.206,0.156-0.248,0.152-1.156-0.064
						c0.096,0.069,0.191,0.139,0.288,0.209c-0.005,0.012-0.008,0.024-0.013,0.037c-0.137-0.049-0.278-0.091-0.41-0.15
						c-0.129-0.058-0.244-0.143-0.371-0.203c-0.177-0.083-0.359-0.128-0.559-0.077c-0.178,0.046-0.218,0.007-0.211-0.184
						c0.018-0.468,0.272-0.802,0.624-1.074c0.297-0.23,0.646-0.345,1.008-0.421c0.314-0.067,0.631-0.126,0.948-0.179
						c0.534-0.088,0.994-0.323,1.393-0.686C312.636,391.395,312.69,391.356,312.777,391.286z"/>
					<path d="M312.844,391.221c0.058,0.028,0.1,0.149,0.098,0.228c-0.012,0.433-0.164,0.813-0.459,1.134
						c-0.037,0.042-0.077,0.081-0.117,0.122c0.27,0.156,0.304,0.331,0.085,0.552c-0.133,0.134-0.298,0.236-0.463,0.362
						c0.069,0.173-0.038,0.292-0.191,0.389c-0.052,0.033-0.11,0.058-0.167,0.083c-0.196,0.083-0.407,0.108-0.583,0.268
						c-0.115,0.104-0.565,0.149-0.886,0.131l0.005-0.075c0.005-0.012,0.008-0.024,0.013-0.037c-0.097-0.07-0.192-0.14-0.288-0.209
						c0.908,0.217,0.95,0.22,1.156,0.064c-0.438-0.11-0.447-0.114-0.524-0.268c0.041,0.013,0.071,0.021,0.1,0.032
						c0.392,0.167,0.763,0.106,1.114-0.112c0.053-0.033,0.076-0.112,0.113-0.17c-0.064-0.016-0.129-0.041-0.195-0.048
						c-0.074-0.008-0.151,0-0.227,0c-0.001-0.019-0.002-0.038-0.003-0.056c0.125-0.034,0.258-0.05,0.37-0.106
						c0.188-0.093,0.374-0.201,0.541-0.327c0.053-0.04,0.083-0.179,0.053-0.237c-0.029-0.061-0.142-0.09-0.225-0.111
						c-0.049-0.012-0.109,0.021-0.165,0.027c-0.079,0.009-0.158,0.012-0.237,0.017c-0.007-0.017-0.013-0.034-0.019-0.052
						c0.348-0.077,0.605-0.277,0.8-0.557c0.194-0.279,0.311-0.581,0.234-0.976l-0.003-0.078
						C312.799,391.207,312.823,391.21,312.844,391.221z"/>
					<path d="M309.378,394.169c-0.198-0.104-0.401-0.133-0.62-0.053c-0.154,0.057-0.235-0.001-0.249-0.171
						c-0.026-0.336,0.079-0.633,0.273-0.903c0.301-0.417,0.715-0.668,1.202-0.8c0.314-0.085,0.637-0.147,0.958-0.207
						c0.583-0.107,1.114-0.322,1.555-0.732c0.025-0.022,0.052-0.054,0.082-0.059c0.062-0.011,0.134-0.035,0.194-0.036l0.004,0.078
						c-0.087,0.07-0.142,0.109-0.19,0.154c-0.398,0.363-0.858,0.597-1.393,0.686c-0.317,0.053-0.634,0.112-0.948,0.179
						c-0.361,0.077-0.711,0.191-1.008,0.421c-0.352,0.272-0.606,0.606-0.624,1.074c-0.007,0.191,0.033,0.229,0.211,0.184
						c0.199-0.051,0.382-0.006,0.559,0.077c0.127,0.06,0.242,0.145,0.371,0.203c0.132,0.06,0.273,0.102,0.41,0.15l-0.005,0.075
						c-0.129-0.007-0.238-0.024-0.295-0.051C309.698,394.358,309.542,394.255,309.378,394.169z"/>
				</g>
			</g>
			<g>
				<g>
					<path fill="#FFFFFF" d="M302.972,391.898c0.72,0.203,1.274,0.613,1.604,1.27c-0.175,0.076-0.68,0.383-0.729,0.403
						c-0.12,0.051-0.226,0.134-0.343,0.193c-0.057,0.028-0.124,0.035-0.186,0.052c-0.006-0.015-0.013-0.028-0.019-0.043
						c0.128-0.119,0.257-0.238,0.386-0.357c-0.01-0.014-0.02-0.028-0.03-0.042c-0.054,0.035-0.106,0.073-0.162,0.104
						c-0.21,0.115-0.42,0.229-0.634,0.337c-0.028,0.015-0.075-0.01-0.113-0.016c0.021-0.032,0.036-0.071,0.066-0.094
						c0.087-0.066,0.18-0.125,0.271-0.188c-0.011-0.016-0.021-0.031-0.03-0.046c-0.075,0.039-0.146,0.087-0.224,0.115
						c-0.159,0.056-0.32,0.11-0.484,0.144c-0.044,0.009-0.104-0.06-0.156-0.091c0.036-0.039,0.064-0.088,0.109-0.112
						c0.106-0.058,0.22-0.104,0.332-0.155c-0.007-0.017-0.014-0.034-0.021-0.052c-0.051,0.02-0.102,0.038-0.152,0.058
						c-0.249,0.101-0.502,0.145-0.764,0.098c-0.024-0.004-0.048-0.01-0.072-0.015c-0.092-0.022-0.167-0.06-0.148-0.174
						c0.148-0.025,0.292-0.051,0.437-0.076c-0.002-0.018-0.004-0.036-0.006-0.054c-0.111-0.002-0.224,0.005-0.334-0.008
						c-0.129-0.015-0.267-0.026-0.384-0.077c-0.074-0.033-0.163-0.137-0.162-0.208c0.002-0.121,0.126-0.126,0.229-0.125
						c0.105,0.001,0.211-0.005,0.317-0.007c0.002-0.02,0.003-0.04,0.004-0.06c-0.052-0.01-0.105-0.016-0.156-0.03
						c-0.214-0.059-0.434-0.106-0.639-0.19c-0.066-0.027-0.129-0.156-0.124-0.232c0.004-0.049,0.138-0.122,0.213-0.124
						c0.15-0.003,0.301,0.037,0.45,0.061c0.049,0.008,0.099,0.021,0.163,0.009c-0.745-0.241-1.213-0.707-1.316-1.525
						c0.042,0.022,0.06,0.026,0.066,0.037c0.29,0.56,0.783,0.824,1.372,0.945C302.058,391.717,302.525,391.772,302.972,391.898z"/>
					<path d="M304.634,393.16c0.043,0.1,0.081,0.206,0.112,0.318c-0.044-0.042-0.056-0.047-0.059-0.056
						c-0.027-0.072-0.058-0.141-0.089-0.208c-0.001-0.004-0.003-0.007-0.005-0.01C304.617,393.183,304.629,393.167,304.634,393.16z"
						/>
					<path d="M304.629,393.151c0.004,0,0.006,0.003,0.004,0.008C304.632,393.157,304.631,393.154,304.629,393.151z"/>
					<path d="M303.503,393.765c0.117-0.059,0.223-0.142,0.343-0.193c0.049-0.021,0.555-0.327,0.729-0.403
						c0.006,0.012,0.012,0.024,0.017,0.036c-0.063,0.058-0.207,0.171-0.466,0.362c-1.251,0.919-0.251,0.092-0.374,0.146
						c-0.105,0.046-0.202,0.109-0.308,0.155c-0.096,0.042-0.192,0.057-0.222-0.082c-0.512,0.192-0.539,0.192-0.617,0.013
						c-0.448,0.071-0.5,0.049-0.535-0.192c-0.135-0.018-0.267-0.026-0.395-0.05l0.015-0.081c0.262,0.047,0.516,0.003,0.764-0.098
						c0.05-0.021,0.102-0.039,0.152-0.058c0.007,0.018,0.014,0.035,0.021,0.052c-0.111,0.051-0.225,0.097-0.332,0.155
						c-0.044,0.023-0.073,0.073-0.109,0.112c0.052,0.032,0.111,0.101,0.156,0.091c0.164-0.034,0.326-0.087,0.484-0.144
						c0.078-0.027,0.149-0.076,0.224-0.115c0.009,0.015,0.02,0.031,0.03,0.046c-0.091,0.062-0.184,0.121-0.271,0.188
						c-0.03,0.022-0.044,0.062-0.066,0.094c0.038,0.006,0.085,0.031,0.113,0.016c0.213-0.108,0.424-0.222,0.634-0.337
						c0.056-0.03,0.108-0.069,0.162-0.104c0.01,0.014,0.02,0.028,0.03,0.042c-0.128,0.119-0.257,0.238-0.386,0.357
						c0.006,0.015,0.013,0.029,0.019,0.043C303.379,393.8,303.446,393.793,303.503,393.765z"/>
					<path d="M301.391,393.405c-0.029-0.162-0.149-0.178-0.261-0.225c-0.262-0.11-0.309-0.251-0.17-0.5
						c-0.208-0.073-0.436-0.135-0.451-0.409c-0.011-0.185,0.105-0.279,0.303-0.3c-0.045-0.035-0.067-0.051-0.087-0.068
						c-0.023-0.017-0.045-0.032-0.067-0.049c-0.379-0.317-0.587-0.719-0.596-1.211l0.103-0.001c0.103,0.819,0.571,1.285,1.316,1.525
						c-0.064,0.012-0.114-0.001-0.163-0.009c-0.149-0.024-0.3-0.063-0.45-0.061c-0.075,0.001-0.208,0.075-0.213,0.124
						c-0.006,0.076,0.058,0.205,0.124,0.232c0.205,0.084,0.425,0.131,0.639,0.19c0.051,0.014,0.104,0.02,0.156,0.03
						c-0.001,0.02-0.002,0.04-0.004,0.06c-0.106,0.002-0.212,0.008-0.317,0.007c-0.104-0.001-0.228,0.004-0.229,0.125
						c-0.001,0.071,0.088,0.175,0.162,0.208c0.117,0.051,0.254,0.062,0.384,0.077c0.11,0.013,0.223,0.006,0.334,0.008
						c0.002,0.018,0.004,0.036,0.006,0.054c-0.145,0.025-0.289,0.051-0.437,0.076c-0.02,0.114,0.056,0.151,0.148,0.174
						c0.024,0.005,0.048,0.011,0.072,0.015l-0.015,0.081c-0.027-0.004-0.054-0.01-0.081-0.016
						C301.518,393.521,301.401,393.462,301.391,393.405z"/>
					<path d="M304.576,393.168c-0.329-0.657-0.883-1.067-1.604-1.27c-0.447-0.126-0.914-0.182-1.37-0.276
						c-0.589-0.121-1.082-0.385-1.372-0.945c-0.006-0.011-0.024-0.014-0.066-0.037l-0.103,0.001c0-0.012,0-0.023,0-0.035
						c0-0.066,0.071-0.132,0.109-0.198c0.05,0.043,0.122,0.077,0.149,0.131c0.21,0.423,0.561,0.697,0.991,0.839
						c0.345,0.114,0.716,0.153,1.077,0.214c0.642,0.108,1.223,0.344,1.703,0.796c0.229,0.216,0.409,0.462,0.539,0.761
						C304.622,393.15,304.603,393.156,304.576,393.168z"/>
				</g>
			</g>
			<path fill="#FFFFFF" d="M309.014,396.33c-0.054,0.129-0.104,0.26-0.164,0.387c-0.142,0.3-0.329,0.564-0.604,0.758
				c-0.109,0.077-0.229,0.139-0.365,0.162c-0.113,0.02-0.125,0.034-0.116,0.151c0.021,0.325-0.013,0.644-0.095,0.957
				c-0.044,0.166-0.097,0.327-0.172,0.483c-0.096,0.197-0.212,0.376-0.35,0.545c-0.035,0.043-0.014,0.076,0.008,0.114
				c0.092,0.168,0.193,0.332,0.274,0.506c0.132,0.282,0.163,0.574,0.047,0.872c-0.08,0.203-0.205,0.377-0.356,0.53
				c-0.346,0.352-0.747,0.625-1.195,0.828c-0.329,0.151-0.673,0.247-1.035,0.281c-0.42,0.041-0.83,0.012-1.229-0.136
				c-0.058-0.021-0.115-0.049-0.17-0.078c-0.159-0.087-0.211-0.234-0.184-0.398c0.029-0.173,0.083-0.342,0.134-0.51
				c0.024-0.082,0.066-0.156,0.096-0.236c0.017-0.045,0.042-0.056,0.089-0.059c0.252-0.01,0.506-0.014,0.756-0.042
				c0.26-0.03,0.512-0.104,0.751-0.211c0.066-0.029,0.088-0.071,0.065-0.118c-0.031-0.062-0.084-0.052-0.133-0.029
				c-0.282,0.126-0.581,0.195-0.885,0.227c-0.241,0.023-0.488,0.025-0.73,0.008c-0.287-0.022-0.572-0.063-0.854-0.119
				c-0.37-0.075-0.717-0.221-1.039-0.419c-0.097-0.06-0.192-0.121-0.288-0.181c-0.065-0.062-0.131-0.124-0.197-0.186
				c-0.135-0.129-0.257-0.267-0.347-0.437c0.043,0.018,0.086,0.036,0.131,0.054c0.354,0.146,0.726,0.214,1.107,0.247
				c0.443,0.036,0.886,0.03,1.327-0.018c0.648-0.071,1.274-0.231,1.868-0.507c0.465-0.219,0.889-0.499,1.232-0.889
				c0.26-0.293,0.445-0.626,0.492-1.021c0.03-0.241,0.022-0.48-0.132-0.688c-0.059-0.078-0.137-0.145-0.207-0.219
				c0.059-0.023,0.125-0.046,0.188-0.076c0.297-0.137,0.513-0.362,0.679-0.638c0.232-0.384,0.342-0.809,0.391-1.25
				c0.024-0.224,0.036-0.45,0.038-0.674c0.002-0.155-0.021-0.311-0.032-0.467c-0.003-0.031-0.006-0.062-0.008-0.097
				c0.631,0.099,1.183-0.139,1.741-0.396c-0.011,0.086-0.019,0.167-0.031,0.247c-0.062,0.397-0.119,0.795-0.188,1.191
				c-0.075,0.438-0.159,0.874-0.241,1.31C309.063,396.172,309.036,396.251,309.014,396.33z"/>
			<path fill="#FFFFFF" d="M303.572,396.569c0.285,0.022,0.571,0.041,0.855,0.067c0.468,0.044,0.931,0.121,1.389,0.218
				c0.221,0.047,0.438,0.111,0.629,0.24c0.176,0.119,0.27,0.283,0.282,0.493c0.017,0.339-0.087,0.645-0.272,0.924
				c-0.273,0.411-0.65,0.705-1.073,0.944c-0.546,0.308-1.135,0.492-1.75,0.595c-0.36,0.061-0.724,0.089-1.088,0.091
				c-0.474,0.003-0.942-0.037-1.396-0.175c-0.312-0.095-0.604-0.233-0.831-0.474c-0.317-0.337-0.395-0.727-0.227-1.16
				c0.114-0.294,0.324-0.517,0.56-0.715c0.436-0.367,0.934-0.618,1.472-0.796C302.593,396.668,303.075,396.577,303.572,396.569z
				 M302.921,398.915c0.124-0.015,0.361-0.027,0.593-0.068c0.422-0.073,0.819-0.221,1.188-0.44c0.146-0.088,0.289-0.179,0.396-0.315
				c0.142-0.184,0.13-0.377-0.04-0.531c-0.059-0.054-0.127-0.101-0.198-0.138c-0.219-0.112-0.456-0.164-0.698-0.199
				c-0.331-0.046-0.662-0.044-0.99,0.012c-0.368,0.062-0.717,0.189-1.036,0.386c-0.204,0.125-0.381,0.274-0.5,0.486
				c-0.1,0.178-0.085,0.372,0.042,0.511c0.081,0.089,0.185,0.141,0.297,0.176C302.245,398.88,302.525,398.903,302.921,398.915z"/>
			<path fill="#FFFFFF" d="M303.707,397.342c0.339,0.02,0.671,0.057,0.986,0.187c0.094,0.04,0.183,0.096,0.262,0.159
				c0.095,0.075,0.103,0.182,0.027,0.279c-0.044,0.059-0.1,0.108-0.156,0.155c-0.017,0.015-0.056,0.015-0.079,0.007
				c-0.26-0.094-0.529-0.132-0.803-0.128c-0.526,0.008-1.023,0.129-1.474,0.41c-0.101,0.062-0.184,0.153-0.278,0.229
				c-0.017,0.015-0.05,0.031-0.068,0.023c-0.096-0.038-0.197-0.071-0.285-0.126c-0.108-0.068-0.131-0.182-0.082-0.303
				c0.054-0.132,0.146-0.234,0.254-0.323c0.323-0.262,0.697-0.417,1.103-0.493C303.311,397.383,303.51,397.367,303.707,397.342z"/>
			<path fill="#FFFFFF" d="M306.45,391.3c0.097,0.011,0.194,0.02,0.291,0.033c0.363,0.051,0.727,0.099,1.088,0.158
				c0.481,0.079,0.967,0.147,1.435,0.295c0.129,0.041,0.252,0.102,0.371,0.166c0.143,0.077,0.215,0.21,0.222,0.368
				c0.006,0.138,0,0.278-0.018,0.415c-0.029,0.225-0.188,0.353-0.373,0.453c-0.325,0.177-0.67,0.306-1.034,0.38
				c-0.196,0.039-0.395,0.046-0.594,0.008c-0.06-0.012-0.079-0.042-0.089-0.097c-0.076-0.4-0.21-0.78-0.408-1.137
				c-0.22-0.394-0.493-0.74-0.863-1.003c-0.01-0.008-0.021-0.017-0.03-0.025C306.448,391.31,306.449,391.305,306.45,391.3z"/>
			<g>
				<g>
					<path d="M310.002,392.257c0.005,0.138,0.016,0.276,0.01,0.414c-0.011,0.213-0.104,0.39-0.27,0.528
						c-0.017,0.014-0.026,0.044-0.03,0.069c-0.049,0.336-0.095,0.672-0.145,1.008c-0.049,0.322-0.102,0.644-0.154,0.965
						c-0.064,0.395-0.128,0.789-0.258,1.168c-0.004,0.014-0.017,0.024-0.025,0.037c-0.038-0.039-0.077-0.078-0.116-0.116
						c0.021-0.079,0.05-0.158,0.065-0.238c0.082-0.437,0.166-0.873,0.242-1.31c0.067-0.396,0.125-0.794,0.187-1.191
						c0.013-0.08,0.021-0.16,0.032-0.247c-0.56,0.257-1.111,0.495-1.742,0.396c0.002,0.035,0.005,0.066,0.008,0.097
						c0.012,0.156,0.034,0.311,0.032,0.466c-0.002,0.225-0.013,0.451-0.038,0.674c-0.049,0.441-0.158,0.866-0.391,1.25
						c-0.166,0.275-0.382,0.501-0.679,0.637c-0.062,0.029-0.129,0.053-0.188,0.076c0.07,0.074,0.148,0.141,0.207,0.219
						c0.154,0.207,0.162,0.446,0.132,0.688c-0.047,0.396-0.231,0.729-0.492,1.021c-0.343,0.39-0.767,0.67-1.232,0.889
						c-0.592,0.276-1.219,0.436-1.868,0.507c-0.441,0.048-0.883,0.054-1.327,0.018c-0.381-0.032-0.752-0.101-1.107-0.247
						c-0.044-0.018-0.087-0.036-0.131-0.054c0.09,0.17,0.212,0.309,0.348,0.437c0.065,0.062,0.131,0.123,0.196,0.186
						c-0.03,0.031-0.061,0.062-0.091,0.092c-0.017-0.005-0.038-0.005-0.051-0.016c-0.288-0.234-0.526-0.509-0.688-0.846
						c-0.01-0.021-0.026-0.042-0.044-0.056c-0.278-0.21-0.475-0.473-0.535-0.822c-0.045-0.257-0.006-0.504,0.101-0.739
						c0.107-0.236,0.27-0.431,0.455-0.608c0.421-0.401,0.921-0.674,1.459-0.879c0.348-0.133,0.708-0.223,1.076-0.274
						c0.173-0.025,0.348-0.027,0.522-0.039c0.021-0.002,0.043,0,0.084,0c-0.052-0.045-0.09-0.076-0.126-0.11
						c-0.269-0.261-0.452-0.577-0.571-0.928c-0.078-0.232-0.148-0.47-0.19-0.71c-0.077-0.448-0.106-0.9-0.03-1.354
						c0.018-0.108,0.04-0.215,0.058-0.323c0.003-0.02,0.002-0.044-0.006-0.063c-0.19-0.429-0.055-0.808,0.272-1.097
						c0.195-0.172,0.423-0.289,0.657-0.399c0.088-0.041,0.164-0.107,0.248-0.159c0.309-0.193,0.645-0.303,1.005-0.345
						c0.346-0.04,0.683,0.004,1.012,0.11c0.032,0.011,0.064,0.021,0.093,0.037c0.115,0.063,0.242,0.036,0.362,0.052
						c0.291,0.038,0.583,0.061,0.873,0.104c0.447,0.067,0.896,0.141,1.342,0.223c0.256,0.047,0.509,0.114,0.763,0.176
						c0.035,0.009,0.066,0.034,0.101,0.051c0.133,0.13,0.267,0.26,0.4,0.39C309.879,392.132,309.94,392.194,310.002,392.257z
						 M309.839,392.736c0.018-0.137,0.023-0.277,0.018-0.415c-0.007-0.158-0.079-0.291-0.222-0.368
						c-0.119-0.064-0.242-0.125-0.371-0.166c-0.468-0.148-0.953-0.217-1.435-0.296c-0.361-0.06-0.726-0.107-1.088-0.158
						c-0.097-0.014-0.194-0.022-0.291-0.033c-0.001,0.005-0.002,0.01-0.002,0.015c0.009,0.008,0.019,0.017,0.03,0.025
						c0.37,0.263,0.643,0.61,0.863,1.003c0.198,0.356,0.332,0.736,0.408,1.137c0.011,0.054,0.029,0.085,0.089,0.097
						c0.199,0.038,0.398,0.031,0.594-0.008c0.364-0.074,0.709-0.203,1.034-0.379C309.649,393.088,309.81,392.96,309.839,392.736z
						 M307.642,394.968c0.028-0.189,0.031-0.382,0.049-0.627c-0.024-0.215-0.041-0.483-0.088-0.746
						c-0.112-0.654-0.37-1.245-0.81-1.749c-0.273-0.314-0.607-0.54-1.005-0.665c-0.31-0.097-0.625-0.122-0.948-0.082
						c-0.316,0.039-0.608,0.141-0.877,0.307c-0.545,0.338-0.875,0.836-1.058,1.442c-0.083,0.271-0.131,0.549-0.137,0.832
						c-0.005,0.25-0.009,0.502,0.024,0.749c0.037,0.264,0.104,0.527,0.182,0.782c0.107,0.348,0.271,0.672,0.529,0.937
						c0.167,0.172,0.364,0.286,0.612,0.293c0.118,0.004,0.236,0.014,0.353,0.03c0.263,0.036,0.526,0.081,0.79,0.116
						c0.294,0.039,0.586,0.088,0.87,0.181c0.15,0.049,0.296,0.036,0.439-0.018c0.363-0.135,0.599-0.405,0.771-0.738
						C307.51,395.685,307.589,395.329,307.642,394.968z M306.456,398.512c0.185-0.279,0.289-0.584,0.272-0.924
						c-0.012-0.21-0.105-0.374-0.282-0.493c-0.191-0.129-0.407-0.193-0.629-0.24c-0.458-0.097-0.921-0.175-1.389-0.218
						c-0.285-0.026-0.57-0.045-0.855-0.067c-0.498,0.008-0.979,0.099-1.45,0.253c-0.538,0.178-1.036,0.429-1.472,0.796
						c-0.236,0.198-0.446,0.421-0.56,0.715c-0.168,0.434-0.09,0.823,0.227,1.16c0.227,0.24,0.519,0.379,0.831,0.473
						c0.454,0.139,0.922,0.179,1.396,0.176c0.365-0.002,0.728-0.03,1.088-0.091c0.616-0.103,1.205-0.287,1.75-0.595
						C305.807,399.217,306.183,398.923,306.456,398.512z M302.788,392.665c0.108-0.299,0.245-0.569,0.43-0.813
						C302.886,392.059,302.714,392.378,302.788,392.665z"/>
					<path fill="#FFFFFF" d="M307.69,394.34c-0.018,0.245-0.021,0.438-0.049,0.627c-0.053,0.361-0.132,0.717-0.303,1.045
						c-0.173,0.333-0.408,0.604-0.771,0.738c-0.143,0.054-0.289,0.066-0.439,0.018c-0.284-0.093-0.576-0.142-0.871-0.181
						c-0.263-0.035-0.526-0.08-0.789-0.116c-0.116-0.017-0.234-0.026-0.353-0.03c-0.249-0.008-0.445-0.121-0.612-0.293
						c-0.258-0.265-0.422-0.589-0.529-0.937c-0.079-0.255-0.146-0.518-0.182-0.782c-0.033-0.246-0.03-0.499-0.024-0.749
						c0.005-0.283,0.055-0.561,0.136-0.832c0.184-0.605,0.514-1.104,1.059-1.442c0.269-0.166,0.561-0.268,0.876-0.307
						c0.323-0.04,0.639-0.016,0.949,0.082c0.398,0.125,0.732,0.35,1.005,0.665c0.439,0.504,0.697,1.095,0.81,1.749
						C307.649,393.857,307.666,394.125,307.69,394.34z"/>
				</g>
			</g>
		</g>
	</g>
</g>
<g>
	<path d="M303.87,393.988c-0.19,0-0.341-0.141-0.343-0.321c-0.002-0.181,0.158-0.328,0.353-0.324
		c0.182,0.004,0.329,0.148,0.329,0.321C304.209,393.846,304.06,393.989,303.87,393.988z M303.905,393.596
		c0-0.018-0.001-0.036-0.002-0.055c-0.049-0.028-0.103-0.08-0.149-0.076c-0.042,0.004-0.08,0.07-0.119,0.108
		c0.042,0.04,0.083,0.107,0.129,0.112C303.807,393.69,303.857,393.629,303.905,393.596z"/>
	<path d="M305.979,393.989c-0.187-0.001-0.344-0.15-0.34-0.325c0.002-0.176,0.161-0.322,0.346-0.319
		c0.188,0.003,0.346,0.152,0.342,0.325C306.323,393.843,306.164,393.99,305.979,393.989z M305.842,393.714
		c0.018,0,0.037,0.001,0.055,0.001c0.033-0.048,0.091-0.096,0.091-0.143c0-0.038-0.07-0.104-0.112-0.105
		c-0.04-0.001-0.115,0.062-0.116,0.099C305.756,393.613,305.812,393.664,305.842,393.714z"/>
	<path d="M304.927,395.202c-0.196,0.002-0.37-0.136-0.386-0.317c-0.003-0.036,0.035-0.074,0.054-0.112
		c0.028,0.026,0.069,0.049,0.08,0.081c0.051,0.151,0.124,0.219,0.255,0.213c0.134-0.006,0.213-0.078,0.248-0.209
		c0.008-0.032,0.049-0.055,0.076-0.083c0.018,0.039,0.053,0.079,0.049,0.116C305.285,395.07,305.125,395.199,304.927,395.202z"/>
	<path fill="#FFFFFF" d="M303.905,393.596c-0.048,0.033-0.099,0.094-0.142,0.09c-0.046-0.005-0.086-0.072-0.129-0.112
		c0.039-0.038,0.077-0.104,0.119-0.108c0.047-0.004,0.1,0.048,0.149,0.076C303.904,393.56,303.905,393.578,303.905,393.596z"/>
	<path fill="#FFFFFF" d="M305.842,393.714c-0.031-0.05-0.086-0.101-0.083-0.148c0.001-0.038,0.076-0.1,0.116-0.099
		c0.042,0.002,0.112,0.067,0.112,0.105c0,0.047-0.059,0.095-0.091,0.143C305.879,393.715,305.86,393.714,305.842,393.714z"/>
</g>
<ellipse fill="none" stroke="#FFF200" stroke-miterlimit="10" cx="306.326" cy="389.455" rx="2.612" ry="0.955"/>
</svg>
