<?xml version="1.0" encoding="utf-8"?>
<!-- Generator: Adobe Illustrator 16.0.0, SVG Export Plug-In . SVG Version: 6.00 Build 0)  -->
<!DOCTYPE svg PUBLIC "-//W3C//DTD SVG 1.1//EN" "http://www.w3.org/Graphics/SVG/1.1/DTD/svg11.dtd">
<svg version="1.1" id="Layer_1" xmlns="http://www.w3.org/2000/svg" xmlns:xlink="http://www.w3.org/1999/xlink" x="0px" y="0px"
	 width="85px" height="85.333px" viewBox="0 0 85 85.333" enable-background="new 0 0 85 85.333" xml:space="preserve">
<circle fill="#F9D117" stroke="#000000" stroke-width="5" stroke-miterlimit="10" cx="42.594" cy="42.929" r="39.928"/>
<g>
	<path fill-rule="evenodd" clip-rule="evenodd" d="M44.876,11.346c0,2.062,0,4.123,0,6.188c13.35,2.302,21.085,9.999,23.443,23.334
		c1.963,0,4.001,0,6.125,0c0,1.646,0,3.1,0,4.693c-2.089,0-4.09,0-6.117,0c-2.286,13.259-9.983,20.996-23.315,23.358
		c0,1.961,0,4,0,6.125c-1.644,0-3.099,0-4.693,0c0-2.086,0-4.087,0-6.116c-13.256-2.288-21.002-9.974-23.384-23.452
		c-1.991,0-4.09,0-6.189,0c0-1.488,0-2.978,0-4.466c2.099,0,4.197,0,6.191,0c2.378-13.486,10.119-21.174,23.474-23.478
		c0-2.064,0-4.126,0-6.187C41.898,11.346,43.387,11.346,44.876,11.346z M30.117,45.64c-2.788,0-5.46,0-8.14,0
		C22.854,56.13,32.51,63.713,40.378,63.791c0-2.674,0-5.349,0-8.018c1.611,0,3.023,0,4.626,0c0,2.758,0,5.433,0,8.115
		c9.984-0.737,17.916-9.86,18.23-18.363c-2.683,0-5.362,0-8.021,0c0-1.641,0-3.092,0-4.671c2.767,0,5.406,0,8.049,0
		c-0.56-9.358-9.238-17.773-18.307-18.229c0,2.682,0,5.361,0,8.062c-1.645,0-3.101,0-4.677,0c0-2.753,0-5.399,0-8.046
		c-8.759,0.363-17.662,8.631-18.27,18.25c2.682,0,5.357,0,8.109,0C30.117,42.493,30.117,43.907,30.117,45.64z"/>
	<g id="XMLID_1_">
		<g>
			<path fill="#F9D117" d="M63.26,40.855c-2.642,0-5.283,0-8.049,0c0,1.579,0,3.03,0,4.67c2.661,0,5.34,0,8.023,0
				c-0.316,8.501-8.247,17.625-18.232,18.362c0-2.683,0-5.356,0-8.116c-1.602,0-3.015,0-4.625,0c0,2.67,0,5.343,0,8.02
				c-7.867-0.08-17.524-7.663-18.401-18.152c2.68,0,5.353,0,8.138,0c0-1.732,0-3.149,0-4.75c-2.75,0-5.426,0-8.106,0
				c0.606-9.618,9.51-17.887,18.27-18.25c0,2.647,0,5.292,0,8.048c1.576,0,3.031,0,4.677,0c0-2.702,0-5.378,0-8.062
				C54.025,23.083,62.702,31.495,63.26,40.855z M47.526,43.381c0.08-2.766-2.061-5.002-4.824-5.037
				c-2.699-0.032-4.877,2.054-4.958,4.75c-0.083,2.756,2.067,4.999,4.83,5.034C45.277,48.167,47.453,46.08,47.526,43.381z"/>
		</g>
		<g>
		</g>
	</g>
	<path fill-rule="evenodd" clip-rule="evenodd" d="M42.576,48.129c-2.761-0.036-4.912-2.278-4.83-5.034
		c0.08-2.696,2.259-4.784,4.957-4.75c2.763,0.035,4.904,2.269,4.826,5.036C47.453,46.08,45.278,48.165,42.576,48.129z"/>
</g>
</svg>
