<?xml version="1.0" encoding="utf-8"?>
<!-- Generator: Adobe Illustrator 16.0.0, SVG Export Plug-In . SVG Version: 6.00 Build 0)  -->
<!DOCTYPE svg PUBLIC "-//W3C//DTD SVG 1.1//EN" "http://www.w3.org/Graphics/SVG/1.1/DTD/svg11.dtd">
<svg version="1.1" id="Layer_1" xmlns="http://www.w3.org/2000/svg" xmlns:xlink="http://www.w3.org/1999/xlink" x="0px" y="0px"
	 width="612px" height="588.839px" viewBox="0 0 612 588.839" enable-background="new 0 0 612 588.839" xml:space="preserve">
<g>
	<path fill-rule="evenodd" clip-rule="evenodd" d="M257.077,337.383c-1.619,0-2.867,0-4.115,0c-9.519,0-19.041-0.16-28.555,0.047
		c-8.398,0.184-15.251-2.98-21.104-8.725c-9.008-8.844-14.136-19.93-17.875-31.705c-7.139-22.483-8.669-45.554-6.683-68.938
		c1.437-16.92,4.938-33.329,12.382-48.722c3.181-6.577,7.11-12.644,12.438-17.723c5.861-5.588,12.668-8.491,20.93-8.476
		c53.874,0.099,107.748,0.19,161.621-0.067c11.262-0.054,19.641,4.49,26.383,12.874c9.123,11.342,13.861,24.69,17.142,38.638
		c3.362,14.298,4.437,28.822,4.413,43.492c-0.083,53.973-0.025,107.943-0.022,161.914c0.001,3.238,0.002,6.477-0.001,9.715
		c-0.007,8.033-3.922,13.176-11.663,15.324c-7.958,2.211-16.181-0.523-21.292-7.076c-4.027-5.164-10.875-5.545-15.255-0.691
		c-3.56,3.945-7.419,7.266-12.891,8.143c-7.733,1.238-14.179-1.107-19.115-7.139c-4.653-5.684-11.153-6.113-15.991-0.457
		c-9.291,10.863-21.773,9.258-28.787,3.307c-1.039-0.881-2.011-1.879-2.854-2.949c-4.338-5.512-10.94-5.953-15.598-0.691
		c-5.722,6.465-12.45,9.689-21.164,7.689c-4.594-1.053-8.23-3.746-11.17-7.213c-0.98-1.154-1.127-3.279-1.13-4.963
		c-0.064-27.279-0.044-54.559-0.043-81.84C257.077,340.004,257.077,338.857,257.077,337.383z M243.492,163.08
		c0.128,0.584,0.108,0.814,0.214,0.935c10.691,12.293,15.824,27.116,19.323,42.653c3.646,16.187,4.008,32.616,3.951,49.142
		c-0.189,54.46-0.067,108.921-0.064,163.382c0,3.979,0.816,5.143,4.636,6.256c3.603,1.047,6.789,0.191,9.476-2.408
		c1.338-1.297,2.542-2.734,3.905-4.002c7.883-7.316,21.063-6.559,27.967,1.58c5.916,6.975,11.281,7.154,17.433,0.586
		c9.478-10.121,22.319-9.725,31.288,0.967c3.852,4.592,10.197,4.963,14.567,0.82c0.923-0.875,1.724-1.879,2.612-2.795
		c8.6-8.852,22.2-8.156,30.015,1.367c1.302,1.586,3.187,3.004,5.095,3.725c5.801,2.189,10.309-1.061,10.31-7.131
		c0.007-58.385,0.057-116.771-0.018-175.156c-0.018-13.672-1.573-27.211-5.148-40.445c-3.141-11.625-7.338-22.787-15.516-31.975
		c-4.446-4.995-9.771-7.609-16.771-7.583c-46.217,0.168-92.435,0.085-138.653,0.084C246.648,163.08,245.184,163.08,243.492,163.08z
		 M257.437,245.084c-0.471-6.844-0.729-13.711-1.459-20.528c-1.585-14.806-4.871-29.188-11.747-42.543
		c-2.938-5.707-6.471-11.004-11.629-14.996c-6.847-5.298-13.639-5.275-20.405,0.157c-1.822,1.463-3.503,3.159-5.008,4.95
		c-4.853,5.775-8.268,12.411-10.704,19.49c-11.08,32.208-11.375,64.825-3.127,97.636c2.791,11.104,7.111,21.637,14.824,30.383
		c9.3,10.549,19.505,10.461,28.74-0.131c1.158-1.328,2.425-2.654,3.208-4.199c3.225-6.359,6.879-12.59,9.281-19.262
		C255.32,279.629,257.08,262.473,257.437,245.084z M244.073,327.273c4.035,0,8.386,0,12.75,0c0-7.312,0-14.404,0-21.012
		C252.649,313.141,248.333,320.254,244.073,327.273z"/>
	<path fill-rule="evenodd" clip-rule="evenodd" fill="#FFFFFF" d="M243.492,163.08c1.692,0,3.157,0,4.622,0
		c46.218,0.001,92.436,0.084,138.653-0.084c7-0.025,12.324,2.589,16.771,7.583c8.178,9.188,12.375,20.35,15.516,31.975
		c3.575,13.234,5.131,26.773,5.148,40.445c0.074,58.385,0.024,116.771,0.018,175.156c-0.001,6.07-4.509,9.32-10.31,7.131
		c-1.908-0.721-3.793-2.139-5.095-3.725c-7.814-9.523-21.415-10.219-30.015-1.367c-0.889,0.916-1.689,1.92-2.612,2.795
		c-4.37,4.143-10.716,3.771-14.567-0.82c-8.969-10.691-21.811-11.088-31.288-0.967c-6.151,6.568-11.517,6.389-17.433-0.586
		c-6.904-8.139-20.084-8.896-27.967-1.58c-1.364,1.268-2.567,2.705-3.905,4.002c-2.687,2.6-5.873,3.455-9.476,2.408
		c-3.82-1.113-4.636-2.277-4.636-6.256c-0.002-54.461-0.125-108.922,0.064-163.382c0.057-16.526-0.305-32.955-3.951-49.142
		c-3.5-15.537-8.632-30.359-19.323-42.653C243.6,163.894,243.62,163.664,243.492,163.08z"/>
	<path fill-rule="evenodd" clip-rule="evenodd" fill="#FFFFFF" d="M257.437,245.084c-0.356,17.389-2.116,34.544-8.026,50.957
		c-2.402,6.672-6.057,12.902-9.281,19.262c-0.783,1.545-2.05,2.871-3.208,4.199c-9.234,10.592-19.439,10.68-28.74,0.131
		c-7.713-8.746-12.033-19.279-14.824-30.383c-8.247-32.811-7.952-65.428,3.127-97.636c2.436-7.08,5.851-13.715,10.704-19.49
		c1.505-1.792,3.186-3.487,5.008-4.95c6.766-5.432,13.558-5.456,20.405-0.157c5.158,3.992,8.691,9.289,11.629,14.996
		c6.876,13.355,10.162,27.738,11.747,42.543C256.707,231.373,256.965,238.24,257.437,245.084z M243.638,242.77
		c-0.408-3.107-0.85-8.59-1.899-13.955c-1.347-6.886-3.798-13.404-8.671-18.698c-6.296-6.838-14.922-7.057-20.988-0.028
		c-2.813,3.26-5.097,7.257-6.619,11.297c-4.71,12.511-4.984,25.477-2.632,38.526c1.354,7.512,3.764,14.635,8.959,20.467
		c6.136,6.888,14.777,7.033,21.071,0.298c1.653-1.77,3.079-3.834,4.24-5.965C242.115,265.503,243.316,255.424,243.638,242.77z"/>
	<path fill-rule="evenodd" clip-rule="evenodd" fill="#FFFFFF" d="M244.073,327.273c4.26-7.02,8.576-14.133,12.75-21.012
		c0,6.607,0,13.699,0,21.012C252.459,327.273,248.108,327.273,244.073,327.273z"/>
	<path fill-rule="evenodd" clip-rule="evenodd" d="M243.638,242.77c-0.322,12.654-1.523,22.733-6.54,31.942
		c-1.161,2.13-2.586,4.195-4.24,5.965c-6.294,6.735-14.936,6.59-21.071-0.298c-5.195-5.832-7.605-12.955-8.959-20.467
		c-2.352-13.049-2.078-26.016,2.632-38.526c1.521-4.041,3.806-8.038,6.619-11.297c6.066-7.029,14.692-6.81,20.988,0.028
		c4.874,5.294,7.325,11.812,8.671,18.698C242.788,234.18,243.23,239.663,243.638,242.77z M233.678,245.595
		c-0.098-8.434-1.108-16.573-4.793-24.13c-1.39-2.851-2.775-6.495-6.528-6.397c-3.516,0.092-4.901,3.581-6.278,6.361
		c-3.049,6.155-4.245,12.809-4.635,19.597c-0.559,9.703,0.418,19.212,4.646,28.107c1.359,2.86,2.777,6.502,6.523,6.406
		c3.512-0.09,4.899-3.588,6.255-6.374C232.501,261.699,233.544,253.668,233.678,245.595z"/>
	<path fill-rule="evenodd" clip-rule="evenodd" fill="#FFFFFF" d="M233.678,245.595c-0.134,8.073-1.177,16.104-4.811,23.571
		c-1.356,2.786-2.744,6.284-6.255,6.374c-3.746,0.096-5.164-3.546-6.523-6.406c-4.228-8.896-5.204-18.405-4.646-28.107
		c0.39-6.789,1.586-13.442,4.635-19.597c1.377-2.78,2.762-6.269,6.278-6.361c3.753-0.098,5.138,3.546,6.528,6.397
		C232.57,229.022,233.58,237.162,233.678,245.595z"/>
</g>
</svg>
