<?xml version="1.0" encoding="utf-8"?>
<!-- Generator: Adobe Illustrator 16.0.0, SVG Export Plug-In . SVG Version: 6.00 Build 0)  -->
<!DOCTYPE svg PUBLIC "-//W3C//DTD SVG 1.1//EN" "http://www.w3.org/Graphics/SVG/1.1/DTD/svg11.dtd">
<svg version="1.1" id="Layer_1" xmlns="http://www.w3.org/2000/svg" xmlns:xlink="http://www.w3.org/1999/xlink" x="0px" y="0px"
	 width="612px" height="588.839px" viewBox="0 0 612 588.839" enable-background="new 0 0 612 588.839" xml:space="preserve">
<g>
	<path fill-rule="evenodd" clip-rule="evenodd" d="M257.039,337.317c-1.619,0-2.867,0-4.115,0
		c-9.519-0.001-19.041-0.161-28.555,0.046c-8.398,0.184-15.251-2.979-21.104-8.725c-9.008-8.844-14.136-19.93-17.875-31.705
		c-7.139-22.482-8.669-45.553-6.683-68.937c1.437-16.92,4.938-33.329,12.382-48.722c3.181-6.577,7.11-12.644,12.438-17.723
		c5.861-5.588,12.668-8.491,20.93-8.476c53.874,0.099,107.748,0.19,161.621-0.067c11.262-0.054,19.641,4.49,26.383,12.874
		c9.123,11.342,13.861,24.69,17.142,38.638c3.362,14.298,4.437,28.822,4.413,43.492c-0.083,53.973-0.025,107.943-0.022,161.914
		c0.001,3.238,0.002,6.477-0.001,9.715c-0.007,8.033-3.922,13.176-11.663,15.325c-7.958,2.21-16.181-0.523-21.292-7.077
		c-4.027-5.164-10.875-5.545-15.255-0.691c-3.56,3.945-7.419,7.266-12.891,8.143c-7.733,1.238-14.179-1.107-19.115-7.139
		c-4.653-5.684-11.153-6.113-15.991-0.457c-9.291,10.863-21.773,9.259-28.787,3.308c-1.039-0.882-2.012-1.88-2.854-2.95
		c-4.338-5.512-10.939-5.952-15.598-0.69c-5.722,6.464-12.449,9.688-21.164,7.688c-4.594-1.053-8.23-3.746-11.17-7.212
		c-0.98-1.155-1.127-3.28-1.13-4.963c-0.064-27.28-0.044-54.56-0.043-81.841C257.039,339.938,257.039,338.791,257.039,337.317z
		 M243.454,163.014c0.128,0.584,0.108,0.814,0.214,0.935c10.691,12.293,15.824,27.116,19.323,42.653
		c3.646,16.187,4.008,32.616,3.951,49.142c-0.189,54.459-0.067,108.92-0.064,163.381c0,3.979,0.816,5.144,4.637,6.256
		c3.602,1.048,6.788,0.192,9.475-2.408c1.339-1.297,2.542-2.734,3.906-4.001c7.883-7.317,21.062-6.559,27.967,1.579
		c5.916,6.975,11.281,7.154,17.433,0.586c9.478-10.12,22.319-9.724,31.288,0.967c3.852,4.592,10.197,4.963,14.567,0.82
		c0.923-0.875,1.724-1.879,2.612-2.794c8.6-8.852,22.2-8.157,30.015,1.366c1.302,1.587,3.187,3.004,5.095,3.725
		c5.801,2.189,10.309-1.061,10.31-7.131c0.007-58.385,0.057-116.771-0.018-175.156c-0.018-13.672-1.573-27.211-5.148-40.445
		c-3.141-11.625-7.338-22.787-15.516-31.975c-4.446-4.995-9.771-7.609-16.771-7.583c-46.217,0.168-92.436,0.085-138.653,0.084
		C246.61,163.014,245.146,163.014,243.454,163.014z M257.398,245.019c-0.471-6.845-0.729-13.711-1.459-20.528
		c-1.585-14.806-4.871-29.188-11.747-42.543c-2.938-5.707-6.471-11.004-11.629-14.996c-6.847-5.298-13.639-5.275-20.405,0.157
		c-1.822,1.463-3.503,3.159-5.008,4.95c-4.853,5.775-8.268,12.411-10.704,19.49c-11.08,32.208-11.375,64.825-3.127,97.635
		c2.791,11.104,7.111,21.637,14.824,30.383c9.3,10.549,19.505,10.461,28.74-0.131c1.158-1.328,2.425-2.653,3.208-4.199
		c3.225-6.359,6.879-12.59,9.281-19.262C255.282,279.562,257.042,262.407,257.398,245.019z M244.035,327.207
		c4.035,0,8.386,0,12.75,0c0-7.312,0-14.404,0-21.012C252.611,313.074,248.294,320.188,244.035,327.207z"/>
	<g id="XMLID_1_">
		<g>
			<path fill="#FFF200" d="M424.16,242.93c0.08,58.39,0.03,116.78,0.02,175.16c0,6.07-4.51,9.32-10.31,7.13
				c-1.91-0.72-3.79-2.14-5.09-3.72c-7.82-9.53-21.42-10.22-30.021-1.37c-0.89,0.91-1.689,1.92-2.609,2.79
				c-4.37,4.15-10.721,3.78-14.57-0.82c-8.97-10.689-21.811-11.08-31.29-0.96c-6.15,6.57-11.51,6.391-17.43-0.59
				c-6.9-8.14-20.081-8.899-27.97-1.58c-1.36,1.271-2.56,2.71-3.9,4c-2.69,2.601-5.87,3.46-9.48,2.41
				c-3.82-1.11-4.63-2.28-4.63-6.26c-0.01-54.46-0.13-108.92,0.06-163.38c0.06-16.52-0.3-32.95-3.95-49.14
				c-3.5-15.54-8.63-30.36-19.32-42.65c-0.11-0.12-0.09-0.35-0.22-0.94c1.7,0,3.16,0,4.63,0c46.21,0.01,92.43,0.09,138.65-0.08
				c7-0.03,12.319,2.59,16.77,7.58c8.18,9.19,12.37,20.35,15.51,31.98C422.59,215.72,424.15,229.26,424.16,242.93z"/>
		</g>
		<g>
		</g>
	</g>
	<path fill-rule="evenodd" clip-rule="evenodd" fill="#FFF200" d="M257.398,245.019c-0.356,17.389-2.116,34.544-8.026,50.956
		c-2.402,6.672-6.057,12.902-9.281,19.262c-0.783,1.546-2.05,2.871-3.208,4.199c-9.234,10.592-19.439,10.68-28.74,0.131
		c-7.713-8.746-12.033-19.279-14.824-30.383c-8.247-32.811-7.952-65.428,3.127-97.635c2.436-7.08,5.851-13.715,10.704-19.49
		c1.505-1.792,3.186-3.487,5.008-4.95c6.766-5.432,13.558-5.456,20.405-0.157c5.158,3.992,8.691,9.289,11.629,14.996
		c6.876,13.355,10.162,27.738,11.747,42.543C256.669,231.307,256.927,238.174,257.398,245.019z M243.6,242.704
		c-0.408-3.106-0.85-8.59-1.899-13.955c-1.347-6.886-3.798-13.404-8.671-18.698c-6.296-6.838-14.922-7.057-20.988-0.028
		c-2.813,3.26-5.097,7.257-6.619,11.297c-4.71,12.511-4.984,25.477-2.632,38.526c1.354,7.512,3.764,14.635,8.959,20.467
		c6.136,6.888,14.777,7.032,21.071,0.298c1.653-1.77,3.079-3.834,4.24-5.965C242.077,265.438,243.278,255.358,243.6,242.704z"/>
	<path fill-rule="evenodd" clip-rule="evenodd" fill="#FFF200" d="M244.035,327.207c4.26-7.02,8.576-14.133,12.75-21.012
		c0,6.607,0,13.7,0,21.012C252.421,327.207,248.07,327.207,244.035,327.207z"/>
	<path fill-rule="evenodd" clip-rule="evenodd" d="M243.6,242.704c-0.322,12.654-1.523,22.733-6.54,31.942
		c-1.161,2.131-2.586,4.195-4.24,5.965c-6.294,6.734-14.936,6.59-21.071-0.298c-5.195-5.832-7.605-12.955-8.959-20.467
		c-2.352-13.05-2.078-26.016,2.632-38.526c1.521-4.041,3.806-8.038,6.619-11.297c6.066-7.029,14.692-6.81,20.988,0.028
		c4.874,5.294,7.325,11.812,8.671,18.698C242.75,234.114,243.192,239.598,243.6,242.704z M233.64,245.529
		c-0.098-8.434-1.108-16.573-4.793-24.13c-1.39-2.851-2.775-6.495-6.528-6.397c-3.516,0.092-4.901,3.581-6.278,6.361
		c-3.049,6.155-4.245,12.809-4.635,19.597c-0.559,9.702,0.418,19.212,4.646,28.107c1.359,2.86,2.777,6.503,6.523,6.406
		c3.512-0.09,4.899-3.588,6.255-6.374C232.463,261.633,233.506,253.602,233.64,245.529z"/>
	<g id="XMLID_2_">
		<g>
			<path fill="#FFF200" d="M228.85,221.4c3.68,7.56,4.69,15.7,4.79,24.13c-0.13,8.07-1.18,16.1-4.81,23.57
				c-1.36,2.79-2.74,6.28-6.26,6.37c-3.74,0.1-5.16-3.54-6.52-6.4c-4.23-8.9-5.2-18.41-4.64-28.11c0.39-6.79,1.58-13.44,4.63-19.6
				c1.38-2.78,2.76-6.27,6.28-6.36C226.07,214.9,227.46,218.55,228.85,221.4z"/>
		</g>
		<g>
		</g>
	</g>
</g>
</svg>
